<svg xmlns="http://www.w3.org/2000/svg" version="1.1" xmlns:xlink="http://www.w3.org/1999/xlink" xmlns:svgjs="http://svgjs.com/svgjs" width="512" height="512" x="0" y="0" viewBox="0 0 512 512" style="enable-background:new 0 0 512 512" xml:space="preserve" class=""><g>
<g xmlns="http://www.w3.org/2000/svg">
	<g>
		<path d="M322.783,328.348h-50.087v-50.087c0-9.22-7.475-16.696-16.696-16.696c-9.22,0-16.696,7.475-16.696,16.696v50.087h-50.087    c-9.22,0-16.696,7.475-16.696,16.696c0,9.22,7.475,16.696,16.696,16.696h50.087v50.087c0,9.22,7.475,16.696,16.696,16.696    c9.22,0,16.696-7.475,16.696-16.696v-50.087h50.087c9.22,0,16.696-7.475,16.696-16.696    C339.478,335.823,332.003,328.348,322.783,328.348z" fill="#000" data-original="#000" class=""></path>
	</g>
</g>
<g xmlns="http://www.w3.org/2000/svg">
	<g>
		<path d="M461.913,77.913H372.87V50.087C372.87,22.469,350.401,0,322.783,0H189.217c-27.618,0-50.087,22.469-50.087,50.087v27.826    H50.087C22.469,77.913,0,100.382,0,128v66.783c0,9.22,7.475,16.696,16.696,16.696h16.696v250.435    C33.391,489.531,55.86,512,83.478,512h345.043c27.618,0,50.087-22.469,50.087-50.087V211.478h16.696    c9.22,0,16.696-7.475,16.696-16.696V128C512,100.382,489.531,77.913,461.913,77.913z M172.522,50.087    c0-9.206,7.49-16.696,16.696-16.696h133.565c9.206,0,16.696,7.49,16.696,16.696v27.826H172.522V50.087z M445.217,461.913    c0,9.206-7.49,16.696-16.696,16.696H83.478c-9.206,0-16.696-7.49-16.696-16.696V211.478h38.957v33.391    c0,18.412,14.979,33.391,33.391,33.391h33.391c18.412,0,33.391-14.979,33.391-33.391v-33.391h100.174v33.391    c0,18.412,14.979,33.391,33.391,33.391h33.391c18.412,0,33.391-14.979,33.391-33.391v-33.391h38.957V461.913z M139.13,244.87    v-66.783h33.391c0.002,7.03,0.019,59.452,0.021,66.781c0,0-0.007,0.001-0.021,0.001H139.13z M339.478,244.87v-66.783h33.391    c0.002,6.96,0.019,59.189,0.021,66.781c0,0-0.007,0.001-0.021,0.001H339.478z M478.609,178.087h-72.348    c0-18.412-14.979-33.391-33.391-33.391h-33.391c-18.412,0-33.391,14.979-33.391,33.391H205.913    c0-18.412-14.979-33.391-33.391-33.391H139.13c-18.412,0-33.391,14.979-33.391,33.391H33.391V128    c0-9.206,7.49-16.696,16.696-16.696c9.099,0,406.851,0,411.826,0c9.206,0,16.696,7.49,16.696,16.696V178.087z" fill="#000" data-original="#000" class=""></path>
	</g>
</g>
<g xmlns="http://www.w3.org/2000/svg">
</g>
<g xmlns="http://www.w3.org/2000/svg">
</g>
<g xmlns="http://www.w3.org/2000/svg">
</g>
<g xmlns="http://www.w3.org/2000/svg">
</g>
<g xmlns="http://www.w3.org/2000/svg">
</g>
<g xmlns="http://www.w3.org/2000/svg">
</g>
<g xmlns="http://www.w3.org/2000/svg">
</g>
<g xmlns="http://www.w3.org/2000/svg">
</g>
<g xmlns="http://www.w3.org/2000/svg">
</g>
<g xmlns="http://www.w3.org/2000/svg">
</g>
<g xmlns="http://www.w3.org/2000/svg">
</g>
<g xmlns="http://www.w3.org/2000/svg">
</g>
<g xmlns="http://www.w3.org/2000/svg">
</g>
<g xmlns="http://www.w3.org/2000/svg">
</g>
<g xmlns="http://www.w3.org/2000/svg">
</g>
</g></svg>