<svg xmlns="http://www.w3.org/2000/svg" version="1.1" xmlns:xlink="http://www.w3.org/1999/xlink" xmlns:svgjs="http://svgjs.com/svgjs" width="512" height="512" x="0" y="0" viewBox="0 0 64 64" style="enable-background:new 0 0 512 512" xml:space="preserve" class=""><g><path xmlns="http://www.w3.org/2000/svg" d="M22,36a2,2,0,0,1,2,2h2a4,4,0,0,0-3-3.858V32H21v2.142A3.992,3.992,0,0,0,22,42a2,2,0,1,1-2,2H18a4,4,0,0,0,3,3.858V50h2V47.858A3.992,3.992,0,0,0,22,40a2,2,0,0,1,0-4Z" fill="#000" data-original="#000"></path><path xmlns="http://www.w3.org/2000/svg" d="M34,41A12,12,0,1,0,22,53,12.013,12.013,0,0,0,34,41ZM22,51A10,10,0,1,1,32,41,10.011,10.011,0,0,1,22,51Z" fill="#000" data-original="#000"></path><path xmlns="http://www.w3.org/2000/svg" d="M39,40.611V40h2.737a1,1,0,0,0,.988-1.157,20.093,20.093,0,0,0-1.413-4.908l-3.3-7.542A8.993,8.993,0,0,0,31,21.091V18a3,3,0,0,0-1.693-2.688l3.68-10.3A3,3,0,0,0,30.162,1H27a1,1,0,0,0-.895.553L25,3.764,23.9,1.553A1,1,0,0,0,23,1H13.838a3,3,0,0,0-2.825,4.009l3.68,10.3A3,3,0,0,0,13,18v3.091a8.993,8.993,0,0,0-7.013,5.3l-3.3,7.541A20,20,0,0,0,1,42,21.024,21.024,0,0,0,22,63a20.782,20.782,0,0,0,12.925-4.471,1,1,0,0,0-.079-1.631L31.9,55.025l.151-.09A7.967,7.967,0,0,0,44,48,8.033,8.033,0,0,0,39,40.611ZM16,17H28a1,1,0,0,1,1,1v3H15V18A1,1,0,0,1,16,17ZM13.021,3.424A.987.987,0,0,1,13.838,3h8.544l1.723,3.447a1.042,1.042,0,0,0,1.79,0L27.618,3h2.544A1,1,0,0,1,31.1,4.337L27.3,15H16.7L12.9,4.337A.986.986,0,0,1,13.021,3.424ZM32.532,57.8A18.759,18.759,0,0,1,22,61,19.021,19.021,0,0,1,3,42a18.024,18.024,0,0,1,1.52-7.265l3.3-7.542A7,7,0,0,1,14.232,23H29.768a7,7,0,0,1,6.413,4.193l3.3,7.542A17.512,17.512,0,0,1,40.53,38H38a1,1,0,0,0-1,1v5.382l-3.447,1.723A1,1,0,0,0,33.02,47.2l.861,4.309-4.4,2.638a1,1,0,0,0-.022,1.7ZM36,54a5.994,5.994,0,0,1-1.879-.306l1.394-.837A1,1,0,0,0,35.98,51.8l-.849-4.251L38.447,45.9A1,1,0,0,0,39,45V42.826A5.986,5.986,0,0,1,36,54Z" fill="#000" data-original="#000"></path><path xmlns="http://www.w3.org/2000/svg" d="M47,55a4,4,0,1,0,4,4A4,4,0,0,0,47,55Zm0,6a2,2,0,1,1,2-2A2,2,0,0,1,47,61Z" fill="#000" data-original="#000"></path><path xmlns="http://www.w3.org/2000/svg" d="M56,43a6,6,0,1,0,6,6A6.006,6.006,0,0,0,56,43Zm0,10a4,4,0,1,1,4-4A4,4,0,0,1,56,53Z" fill="#000" data-original="#000"></path><path xmlns="http://www.w3.org/2000/svg" d="M48,43a4,4,0,1,0-4-4A4,4,0,0,0,48,43Zm0-6a2,2,0,1,1-2,2A2,2,0,0,1,48,37Z" fill="#000" data-original="#000"></path></g></svg>