<svg xmlns="http://www.w3.org/2000/svg" version="1.1" xmlns:xlink="http://www.w3.org/1999/xlink" xmlns:svgjs="http://svgjs.com/svgjs" width="512" height="512" x="0" y="0" viewBox="0 0 512.029 512.029" style="enable-background:new 0 0 512 512" xml:space="preserve" class=""><g>
<g xmlns="http://www.w3.org/2000/svg">
	<g>
		<g>
			<path d="M298.681,341.333h-68.267c-4.713,0-8.533,3.82-8.533,8.533s3.821,8.533,8.533,8.533h68.267     c4.713,0,8.533-3.82,8.533-8.533S303.394,341.333,298.681,341.333z" fill="#000" data-original="#000" class=""></path>
			<path d="M264.548,119.467c4.713,0,8.533-3.82,8.533-8.533V93.867c0-4.713-3.82-8.533-8.533-8.533s-8.533,3.821-8.533,8.533     v17.067C256.015,115.646,259.835,119.467,264.548,119.467z" fill="#000" data-original="#000" class=""></path>
			<path d="M334.748,149.167c2.945,0.789,6.086-0.053,8.242-2.208l12.067-12.067c2.162-2.154,3.008-5.299,2.22-8.247     c-0.788-2.948-3.091-5.251-6.039-6.039c-2.948-0.788-6.093,0.058-8.247,2.22l-12.067,12.067     c-2.156,2.155-2.997,5.297-2.208,8.242C329.504,146.078,331.803,148.378,334.748,149.167z" fill="#000" data-original="#000" class=""></path>
			<path d="M460.815,196.267c-4.713,0-8.533,3.82-8.533,8.533h-85.333c-4.713,0-8.533,3.821-8.533,8.533     c0,4.713,3.82,8.533,8.533,8.533h93.867c2.263,0.001,4.434-0.898,6.035-2.499c1.6-1.6,2.499-3.771,2.499-6.035V204.8     C469.348,200.087,465.527,196.267,460.815,196.267z" fill="#000" data-original="#000" class=""></path>
			<path d="M186.106,146.959c1.598,1.603,3.77,2.503,6.034,2.5c3.451-0.001,6.562-2.08,7.882-5.268     c1.32-3.188,0.591-6.858-1.849-9.298l-12.067-12.067c-3.334-3.322-8.728-3.318-12.056,0.01c-3.328,3.328-3.333,8.722-0.01,12.056     L186.106,146.959z" fill="#000" data-original="#000" class=""></path>
			<path d="M170.681,213.333c0-4.713-3.821-8.533-8.533-8.533h-76.8c0-4.713-3.82-8.533-8.533-8.533s-8.533,3.82-8.533,8.533v8.533     c-0.001,2.263,0.898,4.434,2.499,6.035c1.6,1.6,3.771,2.499,6.035,2.499h85.333C166.861,221.867,170.681,218.046,170.681,213.333     z" fill="#000" data-original="#000" class=""></path>
			<path d="M366.607,238.933H336.88c10.494-29.334,2.141-62.102-21.115-82.833c-26.105-23.518-64.855-26.285-94.037-6.715     c-29.182,19.57-41.331,56.47-29.482,89.548H163.54c-8.946,0.027-17.239,4.69-21.908,12.321     c-8.045,11.452-12.759,24.91-13.617,38.879c0.068,8.174,1.424,16.286,4.017,24.037c1.321,3.666,2.121,7.499,2.375,11.388     c-2.979,4.945-6.649,9.439-10.9,13.346c-5.776,5.694-10.989,11.933-15.567,18.629c-6.017,9.974-3.458,22.888,5.908,29.813     l7.892,5.912l-0.7,1.392c-2.702,5.382-1.647,11.889,2.617,16.142l3.133,3.129c-1.937,4.375-1.507,9.436,1.142,13.421l4.558,6.837     c0.93,1.482,0.997,3.347,0.175,4.892c-2.714,5.547-3.127,11.942-1.15,17.792c2.125,5.485,5.97,10.134,10.958,13.25     c7.673,5.176,16.745,7.882,26,7.753h17.4c9.263-0.003,17.486,5.927,20.408,14.717c3.858,11.602,14.715,19.426,26.942,19.417     h107.442c8.648,0.405,16.948-3.441,22.228-10.301s6.876-15.868,4.272-24.124c-0.933-3.604-2.017-7.362-3.142-11.229     c-4.001-11.68-6.393-23.85-7.108-36.175c0-16.158,8.767-30.004,18.917-46.037c11.833-18.696,25.25-39.883,25.25-68.4     c0.553-20.882-3.115-41.661-10.783-61.092C386.288,245.11,376.948,238.917,366.607,238.933z M205.565,203.7     c4.436-26.296,25.656-46.533,52.133-49.717c2.299-0.257,4.611-0.386,6.925-0.388c14.682-0.046,28.854,5.381,39.75,15.221     c21.09,18.803,26.052,49.844,11.874,74.284l-0.057,0.074c-1.193,2.046-2.498,4.024-3.908,5.926l-0.125,0.172     c-1.279,1.702-2.652,3.332-4.111,4.882c-0.196,0.208-0.365,0.434-0.563,0.64c-1.414,1.462-2.754,2.995-4.014,4.593     c-9.207,10.704-13.98,24.519-13.345,38.624c0,0.731-0.095,1.459-0.282,2.166c-0.057,0.525-0.161,1.043-0.313,1.549     c-0.284,0.629-0.642,1.221-1.069,1.764c-0.215,0.377-0.457,0.736-0.726,1.077c-0.561,0.529-1.192,0.978-1.875,1.336     c-0.286,0.222-0.586,0.424-0.899,0.607c-1.057,0.454-2.195,0.688-3.346,0.69h-34.133c-4.713-0.007-8.531-3.829-8.533-8.542     c0.282-16.203-5.845-31.862-17.05-43.571c-3.489-3.582-6.518-7.585-9.017-11.917l-0.098-0.126     C205.945,231.143,203.396,217.255,205.565,203.7z M384.015,315.733c0,23.567-11.492,41.717-22.6,59.271     c-10.608,16.746-21.567,34.058-21.567,55.167c0.684,13.937,3.304,27.71,7.783,40.925c1.075,3.704,2.116,7.308,3.017,10.754     c1.057,3.201,0.568,6.711-1.325,9.5c-2.169,2.48-5.371,3.806-8.658,3.583H233.223c-4.882,0.002-9.216-3.122-10.758-7.754     c-5.236-15.761-19.983-26.393-36.592-26.379h-17.4c-5.781,0.12-11.461-1.525-16.283-4.717c-3.55-2.463-4.35-4.2-4.5-4.658     c-0.533-1.614-0.416-3.371,0.325-4.9c3.438-6.995,2.935-15.285-1.325-21.813l-3.15-4.729l0.683-0.688     c1.604-1.599,2.507-3.77,2.508-6.036c0.002-2.265-0.898-4.438-2.5-6.039l-6.933-6.925l2.892-5.775     c1.842-3.691,0.783-8.171-2.517-10.646l-13.584-10.184c-2.275-1.586-3.005-4.623-1.7-7.071     c3.984-5.724,8.496-11.063,13.475-15.946c8.367-8.779,15.583-16.358,15.583-24.808c-0.173-5.647-1.204-11.234-3.058-16.571     c-2.112-6.172-3.228-12.64-3.308-19.163c0.896-10.835,4.747-21.217,11.133-30.017c1.563-2.55,4.335-4.108,7.325-4.117h37.242     c0.325,0.486,0.696,0.923,1.03,1.4c0.797,1.128,1.595,2.249,2.458,3.339c1.191,1.522,2.447,2.964,3.733,4.37     c0.379,0.414,0.698,0.867,1.087,1.274c8.285,8.698,12.871,20.271,12.791,32.283c0.015,14.132,11.468,25.585,25.6,25.6h34.133     c1.759-0.002,3.512-0.185,5.233-0.546c0.085-0.018,0.162-0.059,0.247-0.077c1.591-0.344,3.146-0.841,4.642-1.483     c0.445-0.192,0.841-0.475,1.274-0.691c1.081-0.513,2.125-1.1,3.124-1.759c0.613-0.421,1.146-0.945,1.721-1.421     c0.738-0.576,1.443-1.192,2.114-1.845c0.125-0.129,0.28-0.22,0.403-0.352c0.431-0.465,0.74-1.016,1.133-1.508     c0.587-0.701,1.137-1.433,1.646-2.193c0.398-0.627,0.715-1.285,1.056-1.943c0.471-0.868,0.891-1.762,1.257-2.679     c0.252-0.662,0.43-1.339,0.628-2.019c0.291-0.958,0.525-1.932,0.7-2.918c0.127-0.766,0.175-1.532,0.233-2.309     c0.047-0.624,0.188-1.22,0.188-1.855c-0.151-11.814,4.289-23.225,12.385-31.83c0.148-0.157,0.315-0.355,0.456-0.503     c1.075-1.126,2.088-2.344,3.102-3.556c1.846-2.162,3.571-4.425,5.168-6.777h38.281c3.476-0.009,6.618,2.071,7.967,5.275     C381.343,278.61,384.554,297.131,384.015,315.733z" fill="#000" data-original="#000" class=""></path>
			<path d="M136.548,162.133V93.867c-0.02-6.069-3.272-11.668-8.533-14.692V51.2c-0.031-28.264-22.936-51.169-51.2-51.2     c-28.264,0.031-51.169,22.936-51.2,51.2v27.974c-5.262,3.025-8.513,8.623-8.533,14.692v68.267     c0.011,9.421,7.645,17.056,17.067,17.067h85.333C128.902,179.189,136.537,171.555,136.548,162.133z M42.681,51.2     c0-18.851,15.282-34.133,34.133-34.133s34.133,15.282,34.133,34.133v25.6H42.681V51.2z M34.148,93.867h85.333v25.6H34.148V93.867     z M34.148,136.533h85.333v25.6H34.148V136.533z" fill="#000" data-original="#000" class=""></path>
			<path d="M469.348,112.145V17.067C469.337,7.645,461.702,0.011,452.281,0h-25.6c-4.713,0-8.533,3.82-8.533,8.533     s3.82,8.533,8.533,8.533h25.6v17.067h-17.067c-4.713,0-8.533,3.82-8.533,8.533s3.82,8.533,8.533,8.533h17.067v60.945     c-17.135,4.463-27.998,21.306-24.995,38.757c3.003,17.451,18.87,29.694,36.512,28.173c17.642-1.521,31.179-16.3,31.15-34.008     C494.902,129.545,484.379,116.014,469.348,112.145z M460.815,162.133c-9.426,0-17.067-7.641-17.067-17.067     c0-9.426,7.641-17.067,17.067-17.067s17.067,7.641,17.067,17.067C477.87,154.488,470.236,162.123,460.815,162.133z" fill="#000" data-original="#000" class=""></path>
		</g>
	</g>
</g>
<g xmlns="http://www.w3.org/2000/svg">
</g>
<g xmlns="http://www.w3.org/2000/svg">
</g>
<g xmlns="http://www.w3.org/2000/svg">
</g>
<g xmlns="http://www.w3.org/2000/svg">
</g>
<g xmlns="http://www.w3.org/2000/svg">
</g>
<g xmlns="http://www.w3.org/2000/svg">
</g>
<g xmlns="http://www.w3.org/2000/svg">
</g>
<g xmlns="http://www.w3.org/2000/svg">
</g>
<g xmlns="http://www.w3.org/2000/svg">
</g>
<g xmlns="http://www.w3.org/2000/svg">
</g>
<g xmlns="http://www.w3.org/2000/svg">
</g>
<g xmlns="http://www.w3.org/2000/svg">
</g>
<g xmlns="http://www.w3.org/2000/svg">
</g>
<g xmlns="http://www.w3.org/2000/svg">
</g>
<g xmlns="http://www.w3.org/2000/svg">
</g>
</g></svg>