<svg xmlns="http://www.w3.org/2000/svg" version="1.1" xmlns:xlink="http://www.w3.org/1999/xlink" xmlns:svgjs="http://svgjs.com/svgjs" width="512" height="512" x="0" y="0" viewBox="0 0 64 64" style="enable-background:new 0 0 512 512" xml:space="preserve" class=""><g><g xmlns="http://www.w3.org/2000/svg"><path d="m25.099 38.038-9.599-23.038h-2.166l9.166 22h-4.5v-6h-10v6h-4.5l9.167-22h-2.167l-9.599 23.038 2.481 4.962h19.236zm-14.099-1.038v-3h4v3z" fill="#000" data-original="#000"></path><path d="m53.5 15h-2.167l9.167 22h-5.499l-.001-2h-8v2h-5.5l9.167-22h-2.167l-9.599 23.038 2.481 4.962h19.236l2.481-4.962z" fill="#000" data-original="#000"></path><path d="m61 61h2v2h-2z" fill="#000" data-original="#000"></path><path d="m1 61h2v2h-2z" fill="#000" data-original="#000"></path><path d="m16.586 29-3.586-3.586-3.586 3.586z" fill="#000" data-original="#000"></path><circle cx="32" cy="12" r="3" fill="#000" data-original="#000"></circle><path d="m32 7c.618 0 1.203.127 1.75.333l1-1.333-1.95-2.6c-.376-.501-1.225-.501-1.601 0l-1.949 2.6 1 1.333c.547-.206 1.132-.333 1.75-.333z" fill="#000" data-original="#000"></path><path d="m31 16.899v32.101h2v-32.101c-.323.066-.658.101-1 .101s-.677-.035-1-.101z" fill="#000" data-original="#000"></path><path d="m61 13v-2h-24.101c.066.323.101.658.101 1s-.035.677-.101 1z" fill="#000" data-original="#000"></path><path d="m35.549 55h-7.098c-1.991 2.393-4.387 4.437-7.075 6h-16.376v2h54v-2h-16.375c-2.689-1.563-5.085-3.607-7.076-6z" fill="#000" data-original="#000"></path><path d="m35 52c0-.552-.449-1-1-1h-4c-.551 0-1 .448-1 1v1h6z" fill="#000" data-original="#000"></path><path d="m27 12c0-.342.035-.677.101-1h-24.101v2h24.101c-.066-.323-.101-.658-.101-1z" fill="#000" data-original="#000"></path><path d="m55 27h-8v2h8 .001z" fill="#000" data-original="#000"></path><path d="m47 31v2h8 .001l-.001-2z" fill="#000" data-original="#000"></path></g></g></svg>