<svg xmlns="http://www.w3.org/2000/svg" version="1.1" xmlns:xlink="http://www.w3.org/1999/xlink" xmlns:svgjs="http://svgjs.com/svgjs" width="512" height="512" x="0" y="0" viewBox="0 0 64 64" style="enable-background:new 0 0 512 512" xml:space="preserve" class=""><g><g xmlns="http://www.w3.org/2000/svg"><path d="m51 45.184v-2.184h-2v2h-2v3c0 1.654 1.346 3 3 3 .551 0 1 .448 1 1v1h-1c-.551 0-1-.448-1-1v-1h-2v1c0 1.302.839 2.402 2 2.816v2.184h2v-2h2v-3c0-1.654-1.346-3-3-3-.551 0-1-.448-1-1v-1h1c.551 0 1 .448 1 1v1h2v-1c0-1.302-.839-2.402-2-2.816z" fill="#000" data-original="#000" class=""></path><path d="m60.51 44.536-5.51-6.887v-3.346l.168-.252c1.199-1.798 1.832-3.891 1.832-6.051v-.414l-.293-.293c-.234-.234-2.473-2.293-8.707-2.293h-1v1c0 .338.01.677.03 1.014-.178.008-.355.021-.528.049-.515-2.222-1.43-4.338-2.683-6.242.694-.314 1.181-1.011 1.181-1.821v-6c0-1.103-.897-2-2-2v-10h-14v10c-1.103 0-2 .897-2 2h-6c0-1.103-.897-2-2-2v-10h-14v10c-1.103 0-2 .897-2 2v6c0 .809.485 1.504 1.178 1.819-2.056 3.128-3.178 6.824-3.178 10.584v10.597c0 1.654 1.346 3 3 3 .352 0 .686-.072 1-.184v1.184c0 1.654 1.346 3 3 3 .395 0 .77-.081 1.116-.22.345 1.275 1.501 2.22 2.884 2.22s2.539-.945 2.884-2.22c.346.139.721.22 1.116.22 1.654 0 3-1.346 3-3l-.001-5.556c.591.344 1.269.556 2.001.556 1.103 0 2-.897 2-2v-10.578c0-1.783-.523-3.509-1.512-4.992l-1.722-2.583c.724-.302 1.234-1.016 1.234-1.847h6c0 .831.51 1.545 1.234 1.846l-1.722 2.583c-.989 1.484-1.512 3.21-1.512 4.993v10.578c0 1.103.897 2 2 2 .732 0 1.41-.212 2.001-.556l-.001 5.556c0 1.654 1.346 3 3 3 .395 0 .77-.081 1.116-.22.345 1.275 1.501 2.22 2.884 2.22.365 0 .711-.075 1.036-.195-.021.276-.036.553-.036.831 0 6.266 5.098 11.364 11.364 11.364h3.271c6.267 0 11.365-5.098 11.365-11.364 0-2.571-.884-5.092-2.49-7.1zm-5.523-16.05c-.086 1.591-.594 3.122-1.483 4.455l-.039.059h-2.839c-.911-1.863-1.458-3.908-1.593-5.979 3.503.151 5.293 1.043 5.954 1.465zm-1.987 6.514v2h-6v-2zm-4.575-2h-1.807l-1.477-2.953c.489-.655 1.256-1.047 2.095-1.047h.022c.233 1.372.625 2.718 1.167 4zm-17.425-30h10v8h-10zm-2 10h14v6h-14zm-22-10h10v8h-10zm-2 10h14l.001 6h-14.001zm3 34c-.551 0-1-.448-1-1v-11h2v11c0 .552-.449 1-1 1zm5 1c0 .552-.449 1-1 1s-1-.448-1-1v-13.039c.69-.055 1.361-.197 2-.426zm3-1c-.551 0-1-.448-1-1v-12.535c.456-.338.881-.72 1.258-1.156.46.371.742.92.742 1.529v3.162h-.001l.001 9c0 .552-.449 1-1 1zm5-18.578v10.578c-1.103 0-2-.896-2-1.996v-3.166c0-1.52-.845-2.885-2.215-3.566-1.101-.55-1.785-1.656-1.785-2.885v-.387h-2v.387c0 1.451.592 2.79 1.604 3.758-1.084 1.171-2.604 1.855-4.229 1.855h-5.375v9c0 .552-.449 1-1 1s-1-.448-1-1v-10.597c0-3.748 1.249-7.419 3.506-10.403h10.959l2.359 3.539c.769 1.153 1.176 2.496 1.176 3.883zm0-11.422v-2h6v2zm8 20.004c0 1.1-.897 1.996-2 1.996v-10.578c0-1.387.407-2.729 1.176-3.883l2.359-3.539h10.965c1.524 2.016 2.591 4.352 3.116 6.822-.627.433-1.153 1.016-1.51 1.73l-.224.448 2.118 4.236v3.413l-2 2.5v-7.149h-5.375c-1.624 0-3.144-.684-4.227-1.854 1.009-.967 1.602-2.307 1.602-3.759v-.387h-2v.387c0 1.229-.684 2.335-1.794 2.889-1.361.677-2.206 2.042-2.206 3.562zm10 8.202v-10.206h2v7.649l-1.51 1.887c-.173.217-.334.442-.49.67zm-7 1.794c-.551 0-1-.448-1-1l.001-9h-.001v-3.162c0-.607.28-1.155.743-1.529.376.436.802.818 1.257 1.156v12.535c0 .552-.449 1-1 1zm5 1c0 .552-.449 1-1 1s-1-.448-1-1v-13.465c.639.229 1.31.371 2 .426zm14.636 13h-3.271c-5.164 0-9.365-4.201-9.365-9.364 0-2.118.729-4.196 2.052-5.85l5.429-6.786h7.038l5.429 6.786c1.323 1.653 2.052 3.732 2.052 5.85 0 5.163-4.201 9.364-9.364 9.364z" fill="#000" data-original="#000" class=""></path></g></g></svg>