<svg xmlns="http://www.w3.org/2000/svg" version="1.1" xmlns:xlink="http://www.w3.org/1999/xlink" xmlns:svgjs="http://svgjs.com/svgjs" width="512" height="512" x="0" y="0" viewBox="0 0 512 512" style="enable-background:new 0 0 512 512" xml:space="preserve" class=""><g><g xmlns="http://www.w3.org/2000/svg"><path d="m140.812 497.005h230.375v-15.704c-76.792 0-153.583 0-230.375 0zm235.846-226.208 35.462-57.373c-3.118-1.418-5.925-3.402-8.306-5.783-5.13-5.131-8.334-12.246-8.334-20.098 0-7.853 3.203-14.967 8.334-20.127 3.459-3.43 7.796-6.009 12.615-7.313v-32.4h-127.618v182.44l16.781 27.809c.822 1.19 1.304 2.636 1.304 4.195v124.158h71.774c4.139 0 7.512 3.346 7.512 7.513v30.699c0 4.139-3.373 7.483-7.512 7.483h-245.37c-4.139 0-7.483-3.345-7.483-7.483v-30.699c0-4.167 3.345-7.513 7.483-7.513h71.803v-124.158c.028-1.56.454-2.92 1.275-4.195l16.81-27.809v-182.44h-53.434c-4.139 0-7.512-3.346-7.512-7.484 0-4.139 3.373-7.512 7.512-7.512h53.434v-23.386h-127.645v23.386h40.224c4.139 0 7.512 3.373 7.512 7.512s-3.373 7.484-7.512 7.484h-40.224v38.892c0 4.138-3.345 7.512-7.483 7.512-3.713 0-7.087 1.503-9.524 3.911-2.41 2.439-3.941 5.812-3.941 9.525s1.531 7.058 3.941 9.496c2.438 2.438 5.811 3.939 9.524 3.939 3.288 0 6.293-1.162 8.617-3.061 2.353-1.984 4.054-4.763 4.621-7.909.737-4.054 4.649-6.747 8.703-6.01s6.747 4.649 6.01 8.702c-1.219 6.662-4.791 12.529-9.809 16.696-1.899 1.587-4.053 2.948-6.321 3.997l35.434 57.402h15.818c4.139 0 7.483 3.374 7.483 7.513v15.561c0 1.162-.255 2.268-.737 3.26-1.361 3.629-3.146 7.06-5.301 10.234-2.325 3.43-5.103 6.689-8.278 9.694-3.005 2.835-7.739 2.692-10.573-.312-2.835-3.033-2.693-7.767.312-10.574 2.324-2.211 4.394-4.62 6.122-7.172 1.418-2.098 2.58-4.252 3.459-6.435v-6.775h-111.148v6.775c3.401 8.362 10.403 15.704 19.672 21.061 9.865 5.67 22.309 9.043 35.916 9.043 3.543 0 6.831-.198 9.921-.566 3.26-.426 6.463-1.049 9.581-1.843 3.997-1.049 8.079 1.36 9.099 5.357 1.049 3.997-1.361 8.079-5.357 9.099-3.657.965-7.484 1.701-11.453 2.211-3.997.482-7.937.766-11.792.766-16.214 0-31.238-4.166-43.342-11.14-12.784-7.342-22.337-17.887-26.76-30.162-.311-.822-.481-1.672-.481-2.522v-15.558c0-4.139 3.373-7.513 7.512-7.513h15.789l35.461-57.373c-3.118-1.418-5.924-3.402-8.305-5.783-5.131-5.131-8.335-12.246-8.335-20.098 0-7.853 3.203-14.967 8.335-20.127 3.458-3.43 7.767-6.009 12.614-7.313v-32.4h-22.422c-4.139 0-7.483-3.346-7.483-7.484v-38.409c0-4.139 3.345-7.484 7.483-7.484h28.574l138.871-55.36 9.241-15.336c1.361-2.24 3.798-3.63 6.406-3.63h29.537c2.863 0 5.358 1.616 6.605 3.969l9.071 14.996 138.871 55.36h28.545c4.167 0 7.512 3.346 7.512 7.484v38.409c0 4.139-3.345 7.484-7.512 7.484h-22.423v38.892c0 4.138-3.345 7.512-7.483 7.512-3.713 0-7.086 1.503-9.524 3.911-2.409 2.439-3.912 5.812-3.912 9.525s1.502 7.058 3.912 9.496c2.438 2.438 5.811 3.939 9.524 3.939 3.289 0 6.293-1.162 8.618-3.061 2.353-1.984 4.053-4.763 4.62-7.909.737-4.054 4.649-6.747 8.703-6.01s6.747 4.649 6.01 8.702c-1.219 6.662-4.791 12.529-9.78 16.696-1.928 1.587-4.054 2.948-6.35 3.997l35.462 57.402h15.789c4.139 0 7.512 3.374 7.512 7.513v15.561c0 1.162-.283 2.268-.765 3.26-1.361 3.629-3.147 7.06-5.301 10.234-2.324 3.43-5.102 6.689-8.277 9.694-3.005 2.835-7.739 2.692-10.573-.312-2.835-3.033-2.693-7.767.311-10.574 2.353-2.211 4.394-4.62 6.123-7.172 1.417-2.098 2.579-4.252 3.458-6.435v-6.775h-111.148v6.775c3.402 8.362 10.403 15.704 19.672 21.061 9.893 5.67 22.31 9.043 35.915 9.043 3.544 0 6.832-.198 9.921-.566 3.26-.426 6.463-1.049 9.581-1.843 3.997-1.049 8.079 1.36 9.1 5.357 1.049 3.997-1.36 8.079-5.358 9.099-3.657.965-7.483 1.701-11.452 2.211-3.997.482-7.938.766-11.793.766-16.214 0-31.238-4.166-43.342-11.14-12.784-7.342-22.337-17.887-26.759-30.162-.284-.822-.482-1.672-.482-2.522v-15.557c0-4.139 3.373-7.513 7.512-7.513zm76.99 0-29.708-48.104-29.707 48.104zm-335.881 0-29.707-48.104-29.708 48.104zm267.197-196.472-96.153-38.325v38.325h29.452c4.139 0 7.512 3.346 7.512 7.484 0 4.139-3.373 7.512-7.512 7.512h-29.452v23.386h127.617v-23.386h-64.177c-4.167 0-7.512-3.373-7.512-7.512s3.345-7.484 7.512-7.484zm-161.776-38.325-96.152 38.325h96.152zm208.236 53.321v23.386h14.939v-23.386zm-350.876 23.386v-23.386h-14.911v23.386zm157.636-23.386v15.846l20.892-15.846zm35.632 7.54-20.892 15.846h20.892zm-14.74 30.842h-20.892v15.846zm14.74 7.568-20.892 15.846h20.892zm-14.74 30.842h-20.892v15.846zm14.74 7.569-20.892 15.846h20.892zm-14.74 30.839h-20.892v15.847zm14.74 7.542-20.892 15.847h20.892zm-14.74 30.841h-20.892v15.846zm14.74 7.569-20.892 15.846h20.892zm0 38.409-20.892 15.847h20.892zm-35.632 8.277 20.892-15.846h-20.892zm53.689 60.039-57.034 43.285h57.034zm0 65.822-57.034 43.285h57.034zm-71.774 35.715 57.034-43.256h-57.034zm0-65.82 57.034-43.286h-57.034zm53.717-365.872-7.285-12.047h-21.09l-7.257 12.047v47.282h35.632zm12.274 307.592-9.014-14.91h-42.181l-9.014 14.91z" fill="#000" data-original="#000" class=""></path></g></g></svg>