<svg xmlns="http://www.w3.org/2000/svg" version="1.1" xmlns:xlink="http://www.w3.org/1999/xlink" xmlns:svgjs="http://svgjs.com/svgjs" width="45" height="42" x="0" y="0" viewBox="0 0 512 512" style="enable-background:new 0 0 512 512" xml:space="preserve" class=""><g><title xmlns="http://www.w3.org/2000/svg">Report Analysis</title><path xmlns="http://www.w3.org/2000/svg" d="M248.351,141.7h87.97a6,6,0,0,0,0-12h-87.97a6,6,0,0,0,0,12Z" fill="#000" data-original="#000" style=""></path><path xmlns="http://www.w3.org/2000/svg" d="M248.351,170.339h30.965a6,6,0,0,0,0-12H248.351a6,6,0,0,0,0,12Z" fill="#000" data-original="#000" style=""></path><path xmlns="http://www.w3.org/2000/svg" d="M248.351,232.831H375.379a6,6,0,0,0,0-12H248.351a6,6,0,0,0,0,12Z" fill="#000" data-original="#000" style=""></path><path xmlns="http://www.w3.org/2000/svg" d="M209.452,127.966,186.187,151.23l-8.973-8.088a6,6,0,0,0-8.034,8.913l13.2,11.9a6,6,0,0,0,8.26-.214l27.293-27.293a6,6,0,1,0-8.485-8.485Z" fill="#000" data-original="#000" style=""></path><path xmlns="http://www.w3.org/2000/svg" d="M209.452,222.588l-23.265,23.265-8.973-8.088a6,6,0,0,0-8.034,8.913l13.2,11.9a6,6,0,0,0,8.26-.214l27.293-27.292a6,6,0,0,0-8.485-8.486Z" fill="#000" data-original="#000" style=""></path><path xmlns="http://www.w3.org/2000/svg" d="M279.316,249.473H248.351a6,6,0,0,0,0,12h30.965a6,6,0,0,0,0-12Z" fill="#000" data-original="#000" style=""></path><path xmlns="http://www.w3.org/2000/svg" d="M203.142,310.345H171.9a6,6,0,0,0-6,6v31.246a6,6,0,0,0,6,6h31.246a6,6,0,0,0,6-6V316.345A6,6,0,0,0,203.142,310.345Zm-6,31.246H177.9V322.345h19.246Z" fill="#000" data-original="#000" style=""></path><path xmlns="http://www.w3.org/2000/svg" d="M277.033,312.949H248.351a6,6,0,1,0,0,12h28.682a6,6,0,0,0,0-12Z" fill="#000" data-original="#000" style=""></path><path xmlns="http://www.w3.org/2000/svg" d="M266.3,341.591H248.351a6,6,0,0,0,0,12H266.3a6,6,0,0,0,0-12Z" fill="#000" data-original="#000" style=""></path><path xmlns="http://www.w3.org/2000/svg" d="M38.8,455.8a6,6,0,0,0,4.992-2.672A141.3,141.3,0,0,0,67.6,374.5V95.219a11.56,11.56,0,0,1,23.12,0V244.99a6,6,0,0,0,12,0V95.219A23.543,23.543,0,0,0,67.6,74.7V50.8a28.8,28.8,0,0,0-57.6,0V374.5A141.308,141.308,0,0,0,33.808,453.13,6,6,0,0,0,38.8,455.8ZM22,50.8a16.8,16.8,0,0,1,33.6,0V72.629H22Zm0,33.832H55.6V291.041H22Zm0,218.412H55.6V374.5a129.287,129.287,0,0,1-16.8,63.864A129.3,129.3,0,0,1,22,374.5Z" fill="#000" data-original="#000" style=""></path><path xmlns="http://www.w3.org/2000/svg" d="M38.8,462.042a6,6,0,0,0-6,6v6.815a6,6,0,0,0,12,0v-6.815A6,6,0,0,0,38.8,462.042Z" fill="#000" data-original="#000" style=""></path><path xmlns="http://www.w3.org/2000/svg" d="M451.351,306.761V122.677a6,6,0,0,0-1.758-4.242l-94.679-94.68A6,6,0,0,0,350.671,22H157.622a33.088,33.088,0,0,0-33.051,33.051V406.717a33.088,33.088,0,0,0,33.051,33.052H318.991a97.647,97.647,0,1,0,132.36-133.008ZM356.671,42.483l74.194,74.194H377.722a21.074,21.074,0,0,1-21.051-21.051ZM157.622,427.769a21.075,21.075,0,0,1-21.051-21.052V55.049A21.074,21.074,0,0,1,157.622,34H344.671V95.626a33.088,33.088,0,0,0,33.051,33.051h61.629v172.5a97.6,97.6,0,0,0-60.49-3.11l-3.284-9.852a6,6,0,0,0-5.692-4.1,75.444,75.444,0,0,0-75.432,75.443,6,6,0,0,0,4.1,5.692l10.973,3.657a97.649,97.649,0,0,0,3.8,58.869Zm237.5-42.994-88.526-29.5a63.458,63.458,0,0,1,59.014-59.024ZM404.337,478a85.679,85.679,0,0,1-83.387-105.3l76.671,25.552a8.682,8.682,0,0,0,8.882-2.1l0,0a8.679,8.679,0,0,0,2.1-8.883l-25.94-77.813A85.664,85.664,0,1,1,404.337,478Z" fill="#000" data-original="#000" style=""></path></g></svg>