<svg xmlns="http://www.w3.org/2000/svg" version="1.1" xmlns:xlink="http://www.w3.org/1999/xlink" xmlns:svgjs="http://svgjs.com/svgjs" width="512" height="512" x="0" y="0" viewBox="0 0 506.015 506.015" style="enable-background:new 0 0 512 512" xml:space="preserve"><g><path xmlns="http://www.w3.org/2000/svg" d="m504.61 315.821c-1.371-4.962-3.678-9.562-6.861-13.678-12.458-16.072-35.563-19.987-52.602-8.917l-103.718 67.329c-9.137 5.927-20.07 8.167-30.792 6.304l-84.433-14.702 42.032-25.198c1.44 2.661 3.241 5.132 5.397 7.288 5.946 5.934 13.844 9.201 22.236 9.201 17.336 0 31.44-14.104 31.44-31.44v-127.066c7.074-12.257 20.043-19.814 34.279-19.814 14.809 0 28.266 8.168 35.12 21.316 1.292 2.479 3.855 4.033 6.65 4.033h.002c2.796-.001 5.359-1.557 6.65-4.037 6.844-13.146 20.3-21.313 35.117-21.313 14.809 0 28.266 8.168 35.12 21.316 1.596 3.063 5.07 4.64 8.436 3.818 3.355-.822 5.715-3.83 5.715-7.285 0-44.801-16.944-87.394-47.711-119.933-2.847-3.011-7.595-3.142-10.602-.297-3.01 2.846-3.144 7.593-.297 10.603 23.043 24.371 37.604 54.915 42.111 87.681-9.273-6.966-20.697-10.904-32.772-10.904-13.012 0-25.252 4.579-34.871 12.578-2.245-38.133-10.803-73.511-24.664-101.234-6.453-12.905-13.794-23.621-21.791-31.968 18.038 5.153 35.082 13.508 50.51 24.864 3.335 2.455 8.031 1.741 10.486-1.594 2.455-3.336 1.742-8.031-1.594-10.486-30.096-22.155-65.809-33.875-103.284-33.897-.036 0-.072-.002-.108-.002-.046 0-.092.003-.138.003-96.207.075-174.453 78.365-174.453 174.588 0 3.455 2.36 6.462 5.715 7.285.595.146 1.194.216 1.786.216 2.745 0 5.335-1.514 6.649-4.034 6.854-13.148 20.314-21.316 35.129-21.316 14.812 0 28.264 8.167 35.107 21.313 1.292 2.48 3.855 4.036 6.651 4.037h.002c2.795 0 5.358-1.555 6.651-4.033 6.854-13.148 20.314-21.316 35.129-21.316 14.231 0 27.196 7.557 34.271 19.815v127.065c0 9.065-7.375 16.44-16.44 16.44-4.393 0-8.527-1.711-11.637-4.814-1.693-1.693-2.981-3.746-3.798-5.969 12.624-13.475 15.733-33.891 6.486-50.935-9.786-18.032-30.429-26.842-50.18-21.429-2.63.715-5.225 1.693-7.714 2.908l-112.865 55.128c-1.821.881-3.611 1.896-5.296 3-13.171 8.55-21.375 22.857-22.314 38.336l-9.145 2.533c-.96-2.35-1.916-4.701-2.89-7.046-1.291-3.107-4.489-4.974-7.833-4.567-23.291 2.838-45.21 10.584-65.152 23.021-2.855 1.781-4.175 5.245-3.228 8.475 12.499 42.618 27.471 84.984 44.502 125.92 1.174 2.822 3.924 4.62 6.921 4.62.301 0 .606-.019.911-.056 23.317-2.843 45.235-10.589 65.145-23.024 2.852-1.781 4.169-5.243 3.225-8.469-.408-1.392-.838-2.785-1.251-4.177l27.141-10.04 172.042 20.94c2.312.282 4.628.421 6.941.421 13.127 0 26.082-4.485 36.372-12.746l128.747-103.276c.086-.063.17-.127.253-.194 12.27-9.846 17.513-26.007 13.357-41.189zm-109.441-154.158c-9.415-7.354-21.148-11.535-33.579-11.535-12.744 0-24.749 4.398-34.279 12.097v-138.031c16.596 3.558 32.304 18.859 44.867 43.986 12.745 25.489 20.705 58.107 22.991 93.483zm-200.668-11.535c-12.078 0-23.502 3.936-32.776 10.901 8.691-62.921 54.205-114.241 114.017-131.449-7.968 8.336-15.283 19.027-21.715 31.892-13.862 27.723-22.42 63.101-24.665 101.234-9.616-7.999-21.853-12.578-34.861-12.578zm83.539 0c-12.434 0-24.171 4.182-33.587 11.536 2.286-35.376 10.246-67.995 22.991-93.484 12.563-25.127 28.271-40.427 44.867-43.986v138.03c-9.529-7.698-21.531-12.096-34.271-12.096zm204.038 195.008c-.074.056-.148.113-.222.171l-128.991 103.472c-8.972 7.202-20.675 10.529-32.108 9.133l-173.85-21.16c-1.188-.146-2.388-.004-3.508.411l-28.007 10.36c-3.925-12.648-8.044-25.261-12.344-37.672-1.356-3.914-5.627-5.988-9.542-4.631-3.914 1.356-5.987 5.628-4.631 9.542 5.693 16.432 11.099 33.216 16.096 49.975-15.083 8.632-31.36 14.385-48.529 17.151-15.174-36.98-28.645-75.097-40.098-113.459 15.104-8.635 31.384-14.388 48.534-17.152 1.042 2.541 2.07 5.085 3.093 7.628.015.039.031.078.047.117 3.732 9.28 7.336 18.557 10.757 27.711 1.45 3.881 5.772 5.85 9.651 4.4 3.88-1.45 5.85-5.771 4.4-9.651-2.507-6.708-5.11-13.48-7.788-20.271l13.015-3.606c3.424-.948 5.712-4.169 5.482-7.715-.806-12.375 5.133-24.243 15.525-30.989 1.172-.769 2.396-1.462 3.662-2.075l112.888-55.139c1.641-.801 3.347-1.445 5.083-1.917 13.01-3.566 26.6 2.238 33.046 14.113 7.414 13.665 2.774 30.629-10.564 38.621l-61.97 37.15c-2.687 1.611-4.09 4.723-3.517 7.804s3 5.48 6.087 6.018l104.293 18.16c14.461 2.511 29.205-.505 41.527-8.499l103.724-67.332c10.726-6.97 24.73-4.595 32.57 5.521 1.979 2.559 3.414 5.415 4.259 8.472 2.547 9.309-.619 19.224-8.07 25.338z" fill="#000" data-original="#000"></path><path xmlns="http://www.w3.org/2000/svg" d="m224.003 308.554c3.638 5.432 9.598 8.414 15.74 8.414 3.047 0 6.14-.734 9.015-2.268l9.297-4.958c3.654-1.949 5.037-6.492 3.089-10.147-1.949-3.654-6.492-5.039-10.147-3.088l-9.297 4.958c-1.814.968-4.113.416-5.233-1.257-6.201-9.261-8.162-18.709-8.213-18.959-.789-4.058-4.716-6.712-8.775-5.934-4.068.781-6.733 4.711-5.953 8.779.096.504 2.461 12.491 10.477 24.46z" fill="#000" data-original="#000"></path><path xmlns="http://www.w3.org/2000/svg" d="m68.6 448.347c-2.756 1.948-3.853 5.656-2.637 8.797 1.109 2.864 3.921 4.801 6.996 4.801 3.481 0 6.532-2.473 7.309-5.851 1.52-6.609-6.202-11.611-11.668-7.747z" fill="#000" data-original="#000"></path></g></svg>