<svg xmlns="http://www.w3.org/2000/svg" version="1.1" xmlns:xlink="http://www.w3.org/1999/xlink" xmlns:svgjs="http://svgjs.com/svgjs" width="512" height="512" x="0" y="0" viewBox="0 0 64 64" style="enable-background:new 0 0 512 512" xml:space="preserve" class=""><g><g xmlns="http://www.w3.org/2000/svg"><path d="m31 15h6v2h-6z" fill="#000" data-original="#000" class=""></path><path d="m27 15h2v2h-2z" fill="#000" data-original="#000" class=""></path><path d="m28 47h8v2h-8z" fill="#000" data-original="#000" class=""></path><path d="m41 41v-18h-18v18zm-16-16h14v14h-14z" fill="#000" data-original="#000" class=""></path><path d="m60 27c1.654 0 3-1.346 3-3v-20c0-1.654-1.346-3-3-3h-22c-1.654 0-3 1.346-3 3v7h-6v-7c0-1.654-1.346-3-3-3h-22c-1.654 0-3 1.346-3 3v20c0 1.654 1.346 3 3 3h15v10h-15c-1.654 0-3 1.346-3 3v20c0 1.654 1.346 3 3 3h24c1.654 0 3-1.346 3-3v-7h4v7c0 1.654 1.346 3 3 3h22c1.654 0 3-1.346 3-3v-20c0-1.654-1.346-3-3-3h-15v-10zm-23-23c0-.552.449-1 1-1h22c.551 0 1 .448 1 1v20c0 .552-.449 1-1 1h-15v-4h10c2.206 0 4-1.794 4-4 0-1.468-.787-2.772-2.027-3.468.018-.18.027-.357.027-.532 0-3.309-2.691-6-6-6-2.166 0-4.137 1.159-5.199 3.005-1.29.064-2.433.755-3.122 1.788-.776-.496-1.692-.793-2.679-.793h-3zm-26 46c0-2.757 2.243-5 5-5 1.093 0 2.136.373 3 1.025v1.975c0 1.48.659 2.797 1.684 3.713-.711 1.958-2.552 3.287-4.684 3.287-2.757 0-5-2.243-5-5zm.111 5h-4.111v-10h4.111c-1.301 1.272-2.111 3.042-2.111 5s.81 3.728 2.111 5zm44.46-39.902c.855.256 1.429 1.02 1.429 1.902 0 1.103-.897 2-2 2h-10v-3c0-1.024-.312-1.977-.843-2.77.306-.731 1.025-1.23 1.843-1.23.065 0 .128.012.269.031l.753.101.298-.699c.63-1.478 2.075-2.433 3.68-2.433 2.206 0 4 1.794 4 4 0 .279-.038.577-.116.912l-.214.916zm-12.571.902v3h-22v-3c0-1.654 1.346-3 3-3h16c1.654 0 3 1.346 3 3zm-20.551 36.729c.491.162 1.006.271 1.551.271h1v2h-4.119c.655-.641 1.202-1.398 1.568-2.271zm1.551-1.729c-1.654 0-3-1.346-3-3v-3h22v3c0 1.654-1.346 3-3 3zm19 .974c1.207-.914 2-2.348 2-3.974v-2.382l8.764 4.382-10.764 5.382zm0-8.974h-22v-22h22zm-39-18c-.551 0-1-.448-1-1v-20c0-.552.449-1 1-1h22c.551 0 1 .448 1 1v7h-3c-2.757 0-5 2.243-5 5v9zm25 35c0 .552-.449 1-1 1h-24c-.551 0-1-.448-1-1v-20c0-.552.449-1 1-1h15v4.678c-.93-.441-1.952-.678-3-.678h-11v14h22v-4h2zm31-21c.551 0 1 .448 1 1v20c0 .552-.449 1-1 1h-22c-.551 0-1-.448-1-1v-7h3c.342 0 .677-.035 1-.101v5.719l17.236-8.618-13.236-6.618v-4.382z" fill="#000" data-original="#000" class=""></path><path d="m23.11 6.006-10.11-1.123v12.301c-.314-.112-.648-.184-1-.184-1.654 0-3 1.346-3 3s1.346 3 3 3 3-1.346 3-3v-12.883l7.89.877zm-11.11 14.994c-.551 0-1-.448-1-1s.449-1 1-1 1 .448 1 1-.449 1-1 1z" fill="#000" data-original="#000" class=""></path><path d="m16 47c-1.654 0-3 1.346-3 3s1.346 3 3 3 3-1.346 3-3-1.346-3-3-3zm0 4c-.551 0-1-.448-1-1s.449-1 1-1 1 .448 1 1-.449 1-1 1z" fill="#000" data-original="#000" class=""></path></g></g></svg>