<?xml version="1.0" standalone="no"?>
<!DOCTYPE svg PUBLIC "-//W3C//DTD SVG 20010904//EN"
 "http://www.w3.org/TR/2001/REC-SVG-20010904/DTD/svg10.dtd">
<svg version="1.0" xmlns="http://www.w3.org/2000/svg"
 width="1200.000000pt" height="1200.000000pt" viewBox="0 0 1200.000000 1200.000000"
 preserveAspectRatio="xMidYMid meet">
<metadata>
Created by potrace 1.14, written by Peter Selinger 2001-2017
</metadata>
<g transform="translate(0.000000,1200.000000) scale(0.100000,-0.100000)"
fill="#000000" stroke="none">
<path d="M6331 9592 c-83 -48 -166 -95 -184 -106 -18 -10 -243 -140 -502 -288
-258 -149 -486 -281 -505 -293 -19 -12 -71 -43 -115 -67 -44 -25 -96 -55 -115
-65 -56 -32 -334 -192 -350 -202 -8 -5 -88 -51 -178 -103 l-163 -93 43 -39
c102 -92 127 -113 178 -156 29 -25 65 -56 80 -70 15 -14 51 -45 80 -70 29 -25
58 -49 64 -55 6 -5 45 -39 86 -75 41 -36 77 -67 80 -70 3 -3 55 -48 115 -100
61 -52 126 -109 145 -126 28 -26 354 -309 665 -579 33 -28 101 -87 151 -131
50 -43 119 -104 154 -134 35 -30 68 -60 74 -65 6 -6 79 -69 161 -140 83 -71
153 -133 156 -138 3 -4 16 3 30 15 13 13 58 53 99 88 41 36 77 67 80 70 3 3
37 32 75 65 39 33 75 65 80 71 6 5 44 39 85 75 41 35 77 66 80 69 8 9 314 275
339 296 13 10 33 28 45 40 11 11 57 52 101 90 44 38 82 71 85 74 3 3 39 34 80
70 41 36 91 79 110 96 19 17 114 100 210 184 96 84 189 165 205 179 26 24 220
193 435 380 35 31 77 67 93 81 l28 25 -38 20 c-21 11 -67 37 -102 59 -36 21
-85 50 -110 64 -25 14 -58 32 -73 41 -15 9 -132 76 -260 150 -128 74 -300 173
-381 220 -81 47 -167 97 -190 110 -35 20 -1051 607 -1068 617 -3 1 -74 -36
-158 -84z"/>
<path d="M3290 5567 l0 -1415 88 -50 c48 -27 103 -59 122 -70 19 -11 161 -93
315 -182 154 -89 298 -173 320 -185 22 -13 123 -71 225 -130 102 -59 205 -119
230 -133 25 -14 142 -81 260 -150 227 -132 274 -159 330 -190 19 -11 161 -93
315 -182 154 -90 305 -176 335 -193 30 -17 83 -48 118 -69 34 -21 64 -38 66
-38 2 0 45 -25 95 -55 51 -30 93 -55 95 -55 2 0 64 -36 139 -79 l136 -80 39
22 c62 34 144 81 457 262 160 92 304 175 320 185 17 9 107 61 200 115 323 187
550 318 585 338 19 10 40 23 45 27 6 4 35 21 65 37 30 17 76 43 103 58 l47 27
0 56 c0 308 1 2401 0 2415 0 16 -2 17 -20 4 -11 -8 -35 -27 -53 -43 -18 -16
-61 -54 -97 -84 -36 -30 -67 -58 -70 -61 -3 -3 -39 -34 -80 -69 -41 -35 -77
-67 -80 -70 -3 -3 -39 -34 -80 -70 -41 -36 -88 -77 -105 -91 -16 -15 -55 -48
-85 -74 -30 -25 -68 -59 -85 -74 -16 -14 -77 -67 -135 -116 -58 -50 -110 -94
-116 -100 -6 -5 -39 -35 -74 -65 -35 -30 -68 -59 -74 -65 -6 -5 -43 -37 -81
-70 -39 -32 -77 -66 -86 -75 -9 -8 -29 -26 -45 -40 -16 -14 -59 -50 -94 -81
-36 -30 -76 -65 -90 -77 -52 -44 -76 -64 -110 -95 -19 -18 -64 -57 -100 -87
-35 -30 -75 -65 -89 -78 -14 -12 -30 -21 -36 -20 -7 2 -41 28 -76 59 -35 31
-156 136 -269 234 -288 250 -322 279 -334 290 -6 6 -58 51 -116 100 -58 50
-110 95 -116 100 -6 6 -37 33 -69 60 -32 28 -66 57 -75 65 -9 8 -45 40 -81 70
-35 30 -66 57 -69 60 -3 3 -36 32 -75 65 -38 33 -72 62 -75 65 -3 3 -36 32
-75 65 -38 33 -72 62 -75 65 -3 3 -52 46 -110 95 -58 49 -107 92 -110 95 -3 3
-36 32 -75 65 -38 33 -72 62 -75 65 -3 3 -59 52 -125 109 -66 57 -133 115
-150 130 -16 14 -61 53 -100 86 -38 33 -72 62 -75 65 -3 3 -52 46 -110 95 -58
50 -107 92 -110 96 -11 12 -224 195 -249 214 -14 11 -35 29 -46 40 -11 11 -67
61 -125 110 -58 50 -120 104 -138 120 -19 17 -40 34 -48 38 -12 7 -14 -192
-14 -1406z"/>
</g>
</svg>
