<svg xmlns="http://www.w3.org/2000/svg" version="1.1" xmlns:xlink="http://www.w3.org/1999/xlink" xmlns:svgjs="http://svgjs.com/svgjs" width="45" height="42" x="0" y="0" viewBox="0 0 511.996 511.996" style="enable-background:new 0 0 512 512" xml:space="preserve" class=""><g><g xmlns="http://www.w3.org/2000/svg"><g><path d="m504.5 76.46h-30.328v-30.73c0-4.142-3.357-7.5-7.5-7.5h-31.133v-30.73c0-4.142-3.358-7.5-7.5-7.5-4.143 0-7.5 3.358-7.5 7.5v30.73h-31.133c-4.143 0-7.5 3.358-7.5 7.5v30.73h-30.327c-5.139.616-7.608 3.51-7.406 8.682l18.31 114.69c.581 3.64 3.721 6.318 7.406 6.318h12.018v30.73c0 4.142 3.357 7.5 7.5 7.5h12.018v99.695h-152.96c-4.143 0-7.5 3.358-7.5 7.5s3.357 7.5 7.5 7.5h152.96v23.23h-386.421v-23.23h200.78c4.143 0 7.5-3.358 7.5-7.5s-3.357-7.5-7.5-7.5h-208.28c-4.143 0-7.5 3.358-7.5 7.5v38.23c0 4.142 3.357 7.5 7.5 7.5h30.73v33.5c0 4.142 3.357 7.5 7.5 7.5s7.5-3.358 7.5-7.5v-33.5h348.189v99.69h-348.189v-33.5c0-4.142-3.357-7.5-7.5-7.5s-7.5 3.358-7.5 7.5v41c0 4.142 3.357 7.5 7.5 7.5h401.42c4.143 0 7.5-3.358 7.5-7.5v-208.63c0-4.142-3.357-7.5-7.5-7.5s-7.5 3.358-7.5 7.5v201.13h-23.23v-252.61h23.23v18.79c0 4.142 3.357 7.5 7.5 7.5s7.5-3.358 7.5-7.5v-18.795h12.018c4.143 0 7.5-3.358 7.5-7.5v-30.73h11.213c3.666 0 6.795-2.65 7.398-6.267l19.114-114.69c.364-2.174.018-8.733-7.397-8.733zm-138.026 53.23h122.801l-3.872 23.23h-115.22zm30.432-76.46h62.266v23.23h-62.266zm98.741 38.23-3.872 23.229h-127.695l-3.708-23.229zm-36.475 137.92h-62.266v-23.23h62.266zm-82.886-38.23-3.708-23.23h110.325l-3.872 23.23z" fill="#fff" data-original="#fff" style="" class=""></path><path d="m122.198 473.761c4.143 0 7.5-3.358 7.5-7.5v-38.23c0-4.142-3.357-7.5-7.5-7.5h-38.229c-4.143 0-7.5 3.358-7.5 7.5v38.23c0 4.142 3.357 7.5 7.5 7.5zm-30.729-38.23h23.229v23.23h-23.229z" fill="#fff" data-original="#fff" style="" class=""></path><path d="m198.659 473.761c4.143 0 7.5-3.358 7.5-7.5v-38.23c0-4.142-3.357-7.5-7.5-7.5h-38.23c-4.143 0-7.5 3.358-7.5 7.5v38.23c0 4.142 3.357 7.5 7.5 7.5zm-30.73-38.23h23.23v23.23h-23.23z" fill="#fff" data-original="#fff" style="" class=""></path><path d="m275.119 473.761c4.143 0 7.5-3.358 7.5-7.5v-38.23c0-4.142-3.357-7.5-7.5-7.5h-38.23c-4.143 0-7.5 3.358-7.5 7.5v38.23c0 4.142 3.357 7.5 7.5 7.5zm-30.73-38.23h23.23v23.23h-23.23z" fill="#fff" data-original="#fff" style="" class=""></path><path d="m351.579 473.761c4.143 0 7.5-3.358 7.5-7.5v-38.23c0-4.142-3.357-7.5-7.5-7.5h-38.23c-4.143 0-7.5 3.358-7.5 7.5v38.23c0 4.142 3.357 7.5 7.5 7.5zm-30.73-38.23h23.23v23.23h-23.23z" fill="#fff" data-original="#fff" style="" class=""></path></g><path d="m305.371 133.884-23.395-6.269c-9.602-2.574-19.881.253-26.818 7.378l-19.317 19.836-57.887-15.51 20.305-22.898c3.318-5.438 2.095-9.511-3.67-12.221l-19.019-5.096c-13.809-3.699-28.277.646-37.763 11.342l-12.981 14.638-60.364-16.174c-7.495-2.004-15.509-1.332-22.572 1.896l-36.62 16.77c-2.031.93-3.543 2.718-4.121 4.877-4.724 17.627 6.029 36.259 23.669 40.958 23.214 6.202 56.686 15.137 88.771 23.693l.796 13.651c.691 11.857 8.864 21.889 20.336 24.963l22.978 6.157c4.482 1.199 9.717-2.714 9.429-7.681l-1.352-23.2c10.351 2.747 19.466 5.164 26.643 7.063 19.529 5.161 43.135-.384 58.315-13.677l29.28-25.63c.012-.011 29.027-32.644 29.027-32.644 8.213-7.86.713-11.927-3.67-12.222zm-156.341-13.486c5.691-6.417 14.374-9.024 22.657-6.805l7.297 1.955-17.23 19.43-20.728-5.554zm-10.426 100.831c-5.215-1.397-8.93-5.957-9.244-11.347l-2.091-35.874 21.664 5.805 2.615 44.885zm102.249-28.136c-12.218 10.701-28.893 14.613-44.6 10.462-8.256-2.185-19.075-5.054-31.397-8.326l-1.264-21.697c-.189-3.227-2.423-5.971-5.546-6.808l-36.928-9.895c-5.762-.654-8.905 1.906-9.429 7.681l.98 16.823c-30.595-8.16-61.921-16.522-83.985-22.416-9.35-3.365-13.889-9.808-13.617-19.33l33.064-15.142c3.896-1.782 8.32-2.154 12.45-1.046l198.979 53.317zm31.685-28.432-20.092-5.383 13.458-13.819c3.154-3.239 7.827-4.524 12.19-3.354l11.672 3.127z" fill="#fff" data-original="#fff" style="" class=""></path></g></g></svg>