<svg xmlns="http://www.w3.org/2000/svg" version="1.1" xmlns:xlink="http://www.w3.org/1999/xlink" xmlns:svgjs="http://svgjs.com/svgjs" width="512" height="512" x="0" y="0" viewBox="0 0 98 98" style="enable-background:new 0 0 512 512" xml:space="preserve" class=""><g><g xmlns="http://www.w3.org/2000/svg"><path d="m95.5884 41.7178v-2h-45.4107c1.6829-1.4751 2.7524-3.6337 2.7524-6.042 0-2.6211-1.3036-5.0773-3.4121-6.5601v-3.9634c0-2.5884-1.8428-4.8208-4.3945-5.311l-3.5088-.6274v-3.2481l1.541-1.4854-1.3887-1.4395-2.1523 2.0752v3.7402l-6.7422-1.2055-3.45-11.1929h4.4636v-2h-5.0801c-4.1776 0-13.3227 0-17.5605 0-1.751 0-3.1758 1.4243-3.1758 3.1753v15.6729c-3.4292 1.938-5.5497 5.5023-5.5497 9.4849 0 3.687 1.8407 6.947 4.6461 8.9268h-5.0758v2h55.7663l-6.9771 16.1938h-11.9093v-2.5536c1.8253-1.4413 2.835-3.3065 2.835-5.3116 0-2.1563-1.1553-4.1577-3.2617-5.6426l-.5771-.4082-.5771.4067c-2.0996 1.4795-3.2559 3.4844-3.2559 5.6445 0 2.0079 1.01 3.8754 2.8369 5.3176v2.5471h-11.707v-2.5535c1.8253-1.4413 2.835-3.3065 2.835-5.3116 0-2.1563-1.1553-4.1577-3.2617-5.6426l-.5771-.4082-.5771.4067c-2.0996 1.4795-3.2559 3.4844-3.2559 5.6445 0 2.0079 1.01 3.8754 2.8369 5.3176v2.5471h-11.707v-2.5535c1.8253-1.4413 2.835-3.3065 2.835-5.3116 0-2.1563-1.1553-4.1577-3.2617-5.6426l-.5771-.4082-.5771.4067c-2.0996 1.4795-3.2559 3.4844-3.2559 5.6445 0 2.0079 1.01 3.8754 2.8369 5.3176v2.5471h-7.4691v2h47.9304l-6.972 16.1821h-4.0755v-2.5584c1.8253-1.4409 2.835-3.306 2.835-5.3107 0-2.1567-1.1553-4.1582-3.2617-5.6431l-.5771-.4082-.5771.4067c-2.0996 1.4795-3.2559 3.4839-3.2559 5.644 0 2.0079 1.01 3.8758 2.8369 5.3181v2.5515h-11.707v-2.5584c1.8253-1.4409 2.835-3.306 2.835-5.3107 0-2.1567-1.1553-4.1582-3.2617-5.6431l-.5771-.4082-.5771.4067c-2.0996 1.4795-3.2559 3.4839-3.2559 5.644 0 2.0079 1.01 3.8758 2.8369 5.3181v2.5515h-11.707v-2.5584c1.8253-1.4409 2.835-3.306 2.835-5.3107 0-2.1567-1.1553-4.1582-3.2617-5.6431l-.5771-.4082-.5771.4067c-2.0996 1.4795-3.2559 3.4839-3.2559 5.644 0 2.0079 1.01 3.8758 2.8369 5.3181v2.5515h-7.4692v2h40.0966l-6.9765 16.1924h-9.9443v-2.5584c1.8253-1.4409 2.835-3.306 2.835-5.3107 0-2.1567-1.1553-4.1582-3.2852-5.6592l-.5703-.3804-.5605.395c-2.0996 1.4795-3.2559 3.4839-3.2559 5.644 0 2.0079 1.01 3.8758 2.8369 5.3181v2.5515h-11.707v-2.5584c1.8253-1.4409 2.835-3.306 2.835-5.3107 0-2.1567-1.1553-4.1582-3.2852-5.6592l-.5703-.3804-.5605.395c-2.0996 1.4795-3.2559 3.4839-3.2559 5.644 0 2.0079 1.01 3.8758 2.8369 5.3181v2.5515h-7.4688v2h34.4365l23.5095-54.5684h14.4276l-23.1011 53.6008 1.8359.792 23.4424-54.3921h16.1855l-23.0927 53.6006 1.8359.791 23.4335-54.3916zm-44.6582-8.042c0 3.3315-2.7109 6.042-6.043 6.042s-6.042-2.7104-6.042-6.042c0-.4067.0391-.8057.1191-1.2129.5713-2.8042 3.0625-4.8394 5.9229-4.8394 3.3296 0 6.043 2.7206 6.043 6.0523zm-39.6846-29.2178h2.2002v1.249h2v-1.249h11.8838l3.4117 11.0698h-4.2731v2h5.5398l12.7512 2.2798c1.5986.3071 2.7588 1.7139 2.7588 3.3447v2.9131c-4.2483-1.4798-8.9531.8918-10.3066 5.1978h-12.8388c.0068-.1587.0107-.3164.0107-.4722 0-7.4071-7.273-12.7132-14.3135-10.4009v-2.8623h13.8027v-2h-8.4268v-7.6401h-2v7.6401h-3.376v-9.8945c.0001-.648.5275-1.1753 1.1759-1.1753zm-6.7256 26.333c0-5.1183 4.1729-8.9365 8.9268-8.9365 5.349 0 9.6413 4.7346 8.8379 10.2627-.6396 4.333-4.4385 7.6006-8.8379 7.6006-4.9219 0-8.9268-4.0044-8.9268-8.9268zm15.1986 8.9268c2.1576-1.5169 3.7593-3.7907 4.3773-6.4546h12.7696c-.13 2.5893.9439 4.8872 2.7317 6.4546zm18.2477 6.7666c1.1914 1.022 1.8389 2.2666 1.8389 3.562 0 1.3003-.6523 2.5498-1.8369 3.564-1.1885-1.0225-1.835-2.2676-1.835-3.5635 0-1.2954.6455-2.5406 1.833-3.5625zm-13.707 0c1.1914 1.022 1.8389 2.2666 1.8389 3.562 0 1.3003-.6523 2.5498-1.8369 3.564-1.1885-1.0225-1.835-2.2676-1.835-3.5635 0-1.2954.6455-2.5406 1.833-3.5625zm-13.7071 0c1.1914 1.022 1.8389 2.2666 1.8389 3.562 0 1.3003-.6523 2.5498-1.8369 3.564-1.1885-1.0225-1.835-2.2676-1.835-3.5635 0-1.2954.6455-2.5406 1.833-3.5625zm27.4141 18.1777c1.1914 1.022 1.8389 2.2671 1.8389 3.5625 0 1.2949-.6475 2.5396-1.8389 3.5615-1.1875-1.0215-1.833-2.2666-1.833-3.562s.6455-2.54 1.833-3.562zm-13.707 0c1.1914 1.022 1.8389 2.2671 1.8389 3.5625 0 1.2949-.6475 2.5396-1.8389 3.5615-1.1875-1.0215-1.833-2.2666-1.833-3.562s.6455-2.54 1.833-3.562zm-13.7071 0c1.1914 1.022 1.8389 2.2671 1.8389 3.5625 0 1.2949-.6475 2.5396-1.8389 3.5615-1.1875-1.0215-1.833-2.2666-1.833-3.562s.6455-2.54 1.833-3.562zm13.7071 18.1924c1.1914 1.022 1.8389 2.2671 1.8389 3.5625 0 1.2949-.6475 2.5396-1.8389 3.5615-1.1875-1.0215-1.833-2.2666-1.833-3.562s.6455-2.54 1.833-3.562zm-13.7071 0c1.1914 1.022 1.8389 2.2671 1.8389 3.5625 0 1.2949-.6475 2.5396-1.8389 3.5615-1.1875-1.0215-1.833-2.2666-1.833-3.562s.6455-2.54 1.833-3.562z" fill="#fff" data-original="#fff"></path><path d="m13.4468 25.8228c-2.6275 0-4.959 2.1159-4.959 4.9683 0 2.7344 2.2246 4.959 4.959 4.959 2.6488 0 4.9678-2.1258 4.9678-4.959 0-2.7398-2.2286-4.9683-4.9678-4.9683zm0 7.9272c-1.6318 0-2.959-1.3276-2.959-2.959 0-1.7116 1.4054-2.9683 2.959-2.9683 1.6367 0 2.9678 1.3315 2.9678 2.9683 0 1.7223-1.4007 2.959-2.9678 2.959z" fill="#fff" data-original="#fff"></path><path d="m46.9624 30.1772c-.6162-.376-1.333-.5747-2.0752-.5747-1.9238 0-3.5967 1.356-3.9785 3.2305-.0566.2915-.085.5674-.085.8428 0 2.2407 1.8232 4.0635 4.0635 4.0635s4.0635-1.8228 4.0635-4.0635c0-1.4453-.7461-2.7544-1.9883-3.4986zm-2.0752 5.5621c-1.1377 0-2.0635-.9258-2.0635-2.0635 0-.1475.0156-.2964.0459-.4502.1885-.9253 1.0557-1.623 2.0176-1.623.374 0 .7305.0972 1.04.2861.6504.3896 1.0234 1.041 1.0234 1.7871.0001 1.1377-.9257 2.0635-2.0634 2.0635z" fill="#fff" data-original="#fff"></path><path d="m28.794 27.313h6.347v2h-6.347z" fill="#fff" data-original="#fff"></path><path d="m76.2856 14.96c0 3.5342 2.875 6.4092 6.4092 6.4092s6.4092-2.875 6.4092-6.4092-2.875-6.4097-6.4092-6.4097-6.4092 2.8755-6.4092 6.4097zm6.4092-4.4097c2.4316 0 4.4092 1.978 4.4092 4.4097 0 2.4312-1.9775 4.4092-4.4092 4.4092s-4.4092-1.978-4.4092-4.4092c0-2.4317 1.9776-4.4097 4.4092-4.4097z" fill="#fff" data-original="#fff"></path><path d="m81.695 1.714h2v4.511h-2z" fill="#fff" data-original="#fff"></path><path d="m73.375 5.541h4.511v1.999h-4.511z" transform="matrix(-.643 -.766 .766 -.643 119.232 68.682)" fill="#fff" data-original="#fff"></path><path d="m69.616 12.051h4.511v2h-4.511z" transform="matrix(-.985 -.174 .174 -.985 140.385 38.383)" fill="#fff" data-original="#fff"></path><path d="m70.921 19.455h4.511v2h-4.511z" transform="matrix(-.866 .5 -.5 -.866 146.776 1.58)" fill="#fff" data-original="#fff"></path><path d="m76.681 24.288h4.511v2h-4.511z" transform="matrix(-.342 .94 -.94 -.342 129.699 -40.238)" fill="#fff" data-original="#fff"></path><path d="m84.198 24.288h4.511v2h-4.511z" transform="matrix(-.342 -.94 .94 -.342 92.264 115.176)" fill="#fff" data-original="#fff"></path><path d="m89.957 19.455h4.511v2h-4.511z" transform="matrix(.866 .5 -.5 .866 22.583 -43.367)" fill="#fff" data-original="#fff"></path><path d="m92.518 10.796h2v4.51h-2z" transform="matrix(-.174 -.985 .985 -.174 96.92 107.414)" fill="#fff" data-original="#fff"></path><path d="m87.503 5.541h4.511v1.999h-4.511z" transform="matrix(.643 -.766 .766 .643 27.054 71.097)" fill="#fff" data-original="#fff"></path><path d="m53.3345 18.2886v2c2.1328 0 3.8682 1.7349 3.8682 3.8677h2c0-2.1328 1.7344-3.8677 3.8672-3.8677v-2c-2.0244 0-3.8125 1.0308-4.8672 2.5942-1.0557-1.5635-2.8438-2.5942-4.8682-2.5942z" fill="#fff" data-original="#fff"></path><path d="m61.1538 11.5561h2c0-1.4712 1.1973-2.6685 2.668-2.6685v-2c-1.4863 0-2.8125.6982-3.668 1.7842-.8555-1.0859-2.1826-1.7842-3.6689-1.7842v2c1.4716.0001 2.6689 1.1974 2.6689 2.6685z" fill="#fff" data-original="#fff"></path><path d="m47.5181 8.5576h2c0-1.4712 1.1973-2.6685 2.6689-2.6685v-2c-1.4863 0-2.8135.6982-3.6689 1.7842-.8555-1.0859-2.1816-1.7842-3.668-1.7842v2c1.4707.0001 2.668 1.1973 2.668 2.6685z" fill="#fff" data-original="#fff"></path><path d="m66.147 79.0864-.5771-.4082-.5771.4067c-2.0986 1.479-3.2549 3.4839-3.2549 5.6445 0 2.0082 1.01 3.8757 2.8359 5.3176v3.5516h2v-3.5583c1.8262-1.4409 2.8359-3.3061 2.8359-5.3109 0-2.1566-1.1553-4.1581-3.2627-5.643zm-.5772 9.2051c-1.1865-1.022-1.832-2.2666-1.832-3.562 0-1.2959.6455-2.5405 1.832-3.5625 1.1914 1.022 1.8398 2.2666 1.8398 3.5625.0001 1.2949-.6474 2.5395-1.8398 3.562z" fill="#fff" data-original="#fff"></path><path d="m84.9048 81.2012-.5771-.4082-.5771.4067c-2.0986 1.479-3.2549 3.4839-3.2549 5.6445 0 2.0082 1.01 3.8761 2.8359 5.3181v3.5516h2v-3.5583c1.8262-1.4409 2.8359-3.3061 2.8359-5.3113 0-2.1568-1.1553-4.1583-3.2627-5.6431zm-.5772 9.2055c-1.1865-1.022-1.832-2.2666-1.832-3.5625s.6455-2.5405 1.832-3.5625c1.1914 1.022 1.8398 2.2671 1.8398 3.5625.0001 1.295-.6474 2.5401-1.8398 3.5625z" fill="#fff" data-original="#fff"></path><path d="m92.5786 63.4082-.5771-.4082-.5771.4067c-2.0996 1.4795-3.2559 3.4839-3.2559 5.644 0 2.0079 1.01 3.8758 2.8369 5.3181v3.5515h2v-3.5583c1.8253-1.4409 2.835-3.306 2.835-5.3107-.0001-2.1568-1.1553-4.1582-3.2618-5.6431zm-.5771 9.2046c-1.1875-1.0215-1.833-2.2666-1.833-3.562s.6455-2.54 1.833-3.562c1.1914 1.022 1.8389 2.2671 1.8389 3.5625-.0001 1.2949-.6475 2.5395-1.8389 3.5615z" fill="#fff" data-original="#fff"></path><path d="m74.2036 75.1147v-3.5583c1.8261-1.4409 2.835-3.3061 2.8359-5.3109 0-2.1567-1.1553-4.1582-3.2861-5.6592l-.5703-.3804-.5605.395c-2.0986 1.479-3.2549 3.4834-3.2549 5.644 0 2.0082 1.01 3.8761 2.8359 5.3181v3.5516h2zm-1.0039-12.4316c1.1914 1.022 1.8398 2.2671 1.8398 3.5625-.001 1.2949-.6475 2.5396-1.8398 3.562-1.1865-1.022-1.832-2.2666-1.832-3.5625s.6455-2.5405 1.832-3.562z" fill="#fff" data-original="#fff"></path><path d="m82.4966 57.895v-3.5584c1.8253-1.4409 2.835-3.306 2.835-5.3112 0-2.1567-1.1553-4.1582-3.2617-5.6431l-.5771-.4082-.5772.4067c-2.0996 1.4795-3.2558 3.4844-3.2558 5.6445 0 2.0079 1.01 3.8758 2.8369 5.3181v3.5515h1.9999zm-1.0039-12.4321c1.1914 1.022 1.8389 2.2671 1.8389 3.5625s-.6475 2.54-1.8389 3.562c-1.1875-1.0215-1.833-2.2666-1.833-3.562s.6455-2.5405 1.833-3.5625z" fill="#fff" data-original="#fff"></path><path d="m51.5591 84.7295c0-2.1567-1.1553-4.1582-3.2617-5.6431l-.5771-.4082-.5771.4067c-2.0996 1.4795-3.2559 3.4844-3.2559 5.6445 0 2.0079 1.01 3.8754 2.8369 5.3176v3.5515h2v-3.5584c1.8252-1.4408 2.8349-3.3059 2.8349-5.3106zm-3.8389 3.5615c-1.1875-1.0215-1.833-2.2661-1.833-3.5615s.6455-2.5405 1.833-3.5625c1.1914 1.022 1.8389 2.2671 1.8389 3.5625 0 1.2949-.6475 2.5395-1.8389 3.5615z" fill="#fff" data-original="#fff"></path><path d="m56.354 75.1147v-3.5583c1.8261-1.4409 2.835-3.3061 2.8359-5.3109 0-2.1567-1.1553-4.1582-3.2861-5.6592l-.5703-.3804-.5605.395c-2.0986 1.479-3.2549 3.4834-3.2549 5.644 0 2.0082 1.01 3.8761 2.8359 5.3181v3.5516h2zm-1.0039-12.4316c1.1914 1.022 1.8398 2.2671 1.8398 3.5625-.001 1.2949-.6475 2.5396-1.8398 3.562-1.1865-1.022-1.832-2.2666-1.832-3.5625s.6455-2.5405 1.832-3.562z" fill="#fff" data-original="#fff"></path><path d="m64.647 57.895v-3.559c1.8256-1.4408 2.835-3.3057 2.835-5.3106 0-2.1567-1.1553-4.1582-3.2627-5.6431l-.5771-.4087-.5771.4072c-2.0986 1.48-3.2549 3.4844-3.2549 5.6445 0 2.0081 1.0103 3.8759 2.8369 5.3186v3.551h1.9999zm-1.0049-12.4321c1.1914 1.022 1.8398 2.2671 1.8398 3.5625 0 1.2949-.6475 2.54-1.8398 3.562-1.1865-1.022-1.832-2.2666-1.832-3.562s.6455-2.5401 1.832-3.5625z" fill="#fff" data-original="#fff"></path></g></g></svg>