<svg xmlns="http://www.w3.org/2000/svg" version="1.1" xmlns:xlink="http://www.w3.org/1999/xlink" xmlns:svgjs="http://svgjs.com/svgjs" width="512" height="512" x="0" y="0" viewBox="0 0 64 64" style="enable-background:new 0 0 512 512" xml:space="preserve" class=""><g><path xmlns="http://www.w3.org/2000/svg" d="m37 15c-.552 0-1 .447-1 1 0 2.757 2.243 5 5 5s5-2.243 5-5c0-.553-.448-1-1-1h-.382l-2.724-5.447c-.169-.339-.531-.509-.894-.509v-.044h-6.184c-.302-.847-.969-1.514-1.816-1.816v-1.184h-2v1.184c-.847.302-1.514.969-1.816 1.816h-6.184v.044c-.363 0-.725.169-.895.508l-2.723 5.448h-.382c-.552 0-1 .447-1 1 0 2.757 2.243 5 5 5s5-2.243 5-5c0-.553-.448-1-1-1h-.382l-2-4h4.566c.302.847.969 1.514 1.816 1.816v16.184h-3c-.459 0-.859.312-.97.758l-1 4c-.075.299-.007.615.182.857.189.243.48.385.788.385h10c.308 0 .599-.142.788-.385.189-.242.257-.559.182-.857l-1-4c-.111-.446-.511-.758-.97-.758h-3v-16.184c.847-.302 1.514-.969 1.816-1.816h4.566l-2 4zm-1.281 18h-7.438l.5-2h6.438zm5.281-14c-1.304 0-2.416-.836-2.829-2h5.657c-.412 1.164-1.524 2-2.828 2zm-18 0c-1.304 0-2.416-.836-2.829-2h5.657c-.412 1.164-1.524 2-2.828 2zm-1.382-4 1.382-2.764 1.382 2.764zm10.382-4c-.551 0-1-.448-1-1s.449-1 1-1 1 .448 1 1-.449 1-1 1zm9 1.236 1.382 2.764h-2.764z" fill="#fff" data-original="#fff" class=""></path><path xmlns="http://www.w3.org/2000/svg" d="m4.209 25.562 1.985.242c.078-.636.18-1.275.305-1.902l-1.962-.391c-.134.676-.244 1.365-.328 2.051z" fill="#fff" data-original="#fff" class=""></path><path xmlns="http://www.w3.org/2000/svg" d="m6.386 33.49c-.11-.629-.197-1.272-.26-1.91l-1.99.195c.068.688.162 1.38.28 2.059z" fill="#fff" data-original="#fff" class=""></path><path xmlns="http://www.w3.org/2000/svg" d="m7.328 37.228c-.203-.609-.384-1.231-.541-1.851l-1.939.488c.168.668.364 1.338.583 1.993z" fill="#fff" data-original="#fff" class=""></path><path xmlns="http://www.w3.org/2000/svg" d="m8.816 40.78c-.289-.567-.562-1.156-.811-1.75l-1.845.773c.268.639.562 1.272.873 1.885z" fill="#fff" data-original="#fff" class=""></path><path xmlns="http://www.w3.org/2000/svg" d="m10.815 44.076c-.373-.523-.73-1.065-1.061-1.61l-1.71 1.037c.356.588.741 1.171 1.143 1.735z" fill="#fff" data-original="#fff" class=""></path><path xmlns="http://www.w3.org/2000/svg" d="m9.582 12.222c-.416.554-.813 1.129-1.184 1.707l1.685 1.078c.344-.537.713-1.071 1.1-1.586z" fill="#fff" data-original="#fff" class=""></path><path xmlns="http://www.w3.org/2000/svg" d="m25.287 3.875c.626-.166 1.258-.31 1.878-.425l-.366-1.967c-.67.125-1.352.279-2.027.46z" fill="#fff" data-original="#fff" class=""></path><path xmlns="http://www.w3.org/2000/svg" d="m15.135 9.211c.486-.415.995-.817 1.513-1.196l-1.183-1.613c-.557.408-1.104.842-1.628 1.288z" fill="#fff" data-original="#fff" class=""></path><path xmlns="http://www.w3.org/2000/svg" d="m43.074 3.275c-.626-.271-1.279-.523-1.94-.752l-.652 1.891c.614.212 1.218.446 1.798.697z" fill="#fff" data-original="#fff" class=""></path><path xmlns="http://www.w3.org/2000/svg" d="m6.008 29.656c-.005-.218-.008-.436-.008-.656 0-.427.01-.852.031-1.273l-1.998-.098c-.022.455-.033.911-.033 1.371 0 .235.003.47.009.703z" fill="#fff" data-original="#fff" class=""></path><path xmlns="http://www.w3.org/2000/svg" d="m13.716 10.516-1.407-1.422c-.489.484-.967.993-1.421 1.514l1.507 1.314c.421-.484.866-.956 1.321-1.406z" fill="#fff" data-original="#fff" class=""></path><path xmlns="http://www.w3.org/2000/svg" d="m7.53 20.189-1.881-.68c-.233.646-.445 1.312-.631 1.98l1.928.535c.172-.619.368-1.237.584-1.835z" fill="#fff" data-original="#fff" class=""></path><path xmlns="http://www.w3.org/2000/svg" d="m9.104 16.67-1.76-.951c-.327.606-.636 1.234-.919 1.865l1.826.816c.262-.586.549-1.168.853-1.73z" fill="#fff" data-original="#fff" class=""></path><path xmlns="http://www.w3.org/2000/svg" d="m54.863 16.607c.306.564.594 1.145.856 1.725l1.823-.82c-.282-.626-.592-1.252-.922-1.859z" fill="#fff" data-original="#fff" class=""></path><path xmlns="http://www.w3.org/2000/svg" d="m52.779 13.369c.383.508.754 1.039 1.103 1.581l1.682-1.084c-.375-.582-.775-1.154-1.188-1.702z" fill="#fff" data-original="#fff" class=""></path><path xmlns="http://www.w3.org/2000/svg" d="m50.108 7.643c-.527-.447-1.076-.879-1.632-1.284l-1.178 1.617c.516.376 1.026.777 1.517 1.192z" fill="#fff" data-original="#fff" class=""></path><path xmlns="http://www.w3.org/2000/svg" d="m56.443 20.117c.218.6.417 1.217.591 1.835l1.925-.541c-.187-.666-.401-1.331-.636-1.978z" fill="#fff" data-original="#fff" class=""></path><path xmlns="http://www.w3.org/2000/svg" d="m57.486 23.825c.126.626.231 1.266.311 1.901l1.984-.248c-.086-.686-.198-1.375-.335-2.05z" fill="#fff" data-original="#fff" class=""></path><path xmlns="http://www.w3.org/2000/svg" d="m50.238 10.47c.458.45.903.922 1.323 1.402l1.505-1.318c-.453-.517-.933-1.024-1.426-1.51z" fill="#fff" data-original="#fff" class=""></path><path xmlns="http://www.w3.org/2000/svg" d="m53.226 44.019 1.632 1.156c.401-.565.784-1.15 1.138-1.738l-1.713-1.031c-.328.544-.684 1.086-1.057 1.613z" fill="#fff" data-original="#fff" class=""></path><path xmlns="http://www.w3.org/2000/svg" d="m60 29.001c0-.487-.012-.973-.037-1.455l-1.997.104c.023.447.034.897.034 1.35 0 .193-.002.387-.006.578l2 .045c.004-.207.006-.414.006-.622z" fill="#fff" data-original="#fff" class=""></path><path xmlns="http://www.w3.org/2000/svg" d="m57.869 39.732-1.847-.768c-.244.587-.515 1.177-.806 1.752l1.785.902c.313-.619.605-1.253.868-1.886z" fill="#fff" data-original="#fff" class=""></path><path xmlns="http://www.w3.org/2000/svg" d="m59.171 35.789-1.94-.482c-.154.617-.334 1.24-.536 1.852l1.899.627c.218-.66.411-1.331.577-1.997z" fill="#fff" data-original="#fff" class=""></path><path xmlns="http://www.w3.org/2000/svg" d="m44.024 5.94c.572.299 1.135.62 1.673.955l1.058-1.697c-.582-.362-1.189-.709-1.806-1.031z" fill="#fff" data-original="#fff" class=""></path><path xmlns="http://www.w3.org/2000/svg" d="m59.872 31.696-1.991-.189c-.061.638-.146 1.28-.254 1.912l1.972.336c.115-.679.207-1.371.273-2.059z" fill="#fff" data-original="#fff" class=""></path><path xmlns="http://www.w3.org/2000/svg" d="m22.787 2.552c-.646.225-1.297.479-1.933.755l.797 1.834c.59-.256 1.193-.492 1.792-.7z" fill="#fff" data-original="#fff" class=""></path><path xmlns="http://www.w3.org/2000/svg" d="m18.983 4.203c-.605.318-1.21.666-1.799 1.033l1.059 1.697c.547-.342 1.11-.665 1.672-.961z" fill="#fff" data-original="#fff" class=""></path><path xmlns="http://www.w3.org/2000/svg" d="m36.757 3.434c.637.118 1.269.26 1.879.421l.512-1.934c-.659-.175-1.341-.327-2.028-.454z" fill="#fff" data-original="#fff" class=""></path><path xmlns="http://www.w3.org/2000/svg" d="m29.074 3.163c.631-.071 1.278-.12 1.922-.145l-.076-1.997c-.694.026-1.39.078-2.07.154z" fill="#fff" data-original="#fff" class=""></path><path xmlns="http://www.w3.org/2000/svg" d="m34.85 3.153.215-1.988c-.684-.074-1.38-.124-2.07-.147l-.069 1.998c.641.022 1.288.069 1.924.137z" fill="#fff" data-original="#fff" class=""></path><path xmlns="http://www.w3.org/2000/svg" d="m52 61v-9c0-2.154-1.377-3.977-3.29-4.679.793-.886 1.29-2.042 1.29-3.321 0-2.757-2.243-5-5-5s-5 2.243-5 5c0 1.279.497 2.435 1.29 3.321-.743.273-1.402.709-1.933 1.277-.679-1.225-1.841-2.14-3.242-2.462.858-.971 1.384-2.242 1.384-3.636 0-3.032-2.467-5.5-5.5-5.5s-5.5 2.468-5.5 5.5c0 1.394.526 2.665 1.384 3.636-1.401.322-2.563 1.237-3.242 2.462-.531-.568-1.189-1.004-1.933-1.277.795-.886 1.292-2.042 1.292-3.321 0-2.757-2.243-5-5-5s-5 2.243-5 5c0 1.279.497 2.435 1.29 3.321-1.913.702-3.29 2.525-3.29 4.679v9c0 .553.448 1 1 1h11c0 .553.448 1 1 1h14c.552 0 1-.447 1-1h11c.552 0 1-.447 1-1zm-7-9.838.896 2.69-.896 1.345-.896-1.345zm0-10.162c1.654 0 3 1.346 3 3s-1.346 3-3 3-3-1.346-3-3 1.346-3 3-3zm-13 9.64.912 3.19-.912 1.367-.912-1.367zm0-11.64c1.93 0 3.5 1.57 3.5 3.5s-1.57 3.5-3.5 3.5-3.5-1.57-3.5-3.5 1.57-3.5 3.5-3.5zm-13 12.162.896 2.69-.896 1.345-.896-1.345zm0-10.162c1.654 0 3 1.346 3 3s-1.346 3-3 3-3-1.346-3-3 1.346-3 3-3zm-5 19v-8c0-1.654 1.346-3 3-3h.612l-1.561 4.684c-.098.293-.055.614.117.871l2 3c.186.278.498.445.832.445s.646-.167.832-.445l2-3c.171-.257.214-.578.117-.871l-1.561-4.684h.612c1.654 0 3 1.346 3 3v8zm24 1h-12v-10c0-1.654 1.346-3 3-3h1.674l-1.636 5.726c-.081.282-.033.585.129.829l2 3c.187.278.499.445.833.445s.646-.167.832-.445l2-3c.163-.244.21-.547.129-.829l-1.635-5.726h1.674c1.654 0 3 1.346 3 3zm12-1h-10v-8c0-1.654 1.346-3 3-3h.612l-1.561 4.684c-.098.293-.055.614.117.871l2 3c.186.278.498.445.832.445s.646-.167.832-.445l2-3c.171-.257.214-.578.117-.871l-1.561-4.684h.612c1.654 0 3 1.346 3 3z" fill="#fff" data-original="#fff" class=""></path></g></svg>