<svg xmlns="http://www.w3.org/2000/svg" version="1.1" xmlns:xlink="http://www.w3.org/1999/xlink" xmlns:svgjs="http://svgjs.com/svgjs" width="512" height="512" x="0" y="0" viewBox="0 0 512 512" style="enable-background:new 0 0 512 512" xml:space="preserve" class=""><g><path xmlns="http://www.w3.org/2000/svg" d="m16 440a56.0629 56.0629 0 0 0 56 56h224a56 56 0 0 0 0-112h-16.86133a55.96339 55.96339 0 0 0 -39.13867-96h-64v-32a8.00039 8.00039 0 0 0 -8-8h-16a8.00153 8.00153 0 0 0 -6.86035 3.88379l-21.66895 36.11621h-11.4707a55.96339 55.96339 0 0 0 -39.13867 96h-.86133a56.0629 56.0629 0 0 0 -56 56zm144 0a39.75689 39.75689 0 0 1 3.3501-16h32.6499a12 12 0 0 1 0 24h-12v16h12a28 28 0 0 0 0-56h-19.97192a39.986 39.986 0 1 1 -16.02808 32zm96.86133-40a56.36834 56.36834 0 0 0 -8.86133 11.18994 56.36834 56.36834 0 0 0 -8.86133-11.18994zm-17.72266 80a56.36834 56.36834 0 0 0 8.86133-11.18994 56.36834 56.36834 0 0 0 8.86133 11.18994zm96.86133-40a40 40 0 1 1 -76.6499-16h32.6499a12 12 0 0 1 0 24h-12v16h12a28 28 0 0 0 0-56h-19.97192a39.97894 39.97894 0 0 1 63.97192 32zm-56-96a40 40 0 1 1 -76.6499-16h32.6499a12 12 0 0 1 0 24h-12v16h12a28 28 0 0 0 0-56h-19.97192a39.97894 39.97894 0 0 1 63.97192 32zm-199.978 24h39.978v-16h-47.19507a40.15747 40.15747 0 0 1 0-16h23.19507v-16h-15.978a39.963 39.963 0 0 1 31.978-16h16a8.00153 8.00153 0 0 0 6.86035-3.88379l21.66895-36.11621h3.4707v32a8.00039 8.00039 0 0 0 8 8h32.86133a55.80778 55.80778 0 0 0 -16.28076 48h-16.58057v16h21.41431a56.25413 56.25413 0 0 0 11.447 16h-88.86131a39.963 39.963 0 0 1 -31.978-16zm80.83936 32a56.25413 56.25413 0 0 0 -11.447 16h-29.41436v16h24.58057a55.80778 55.80778 0 0 0 16.28076 48h-88.86133a39.963 39.963 0 0 1 -31.978-16h7.978v-16h-15.19507a40.15747 40.15747 0 0 1 0-16h71.19507v-16h-63.978a39.963 39.963 0 0 1 31.978-16h88.86133z" fill="#fff" data-original="#fff" class=""></path><path xmlns="http://www.w3.org/2000/svg" d="m64 448h16v16h-16z" fill="#fff" data-original="#fff" class=""></path><path xmlns="http://www.w3.org/2000/svg" d="m96 448h32v16h-32z" fill="#fff" data-original="#fff" class=""></path><path xmlns="http://www.w3.org/2000/svg" d="m136 352h16v16h-16z" fill="#fff" data-original="#fff" class=""></path><path xmlns="http://www.w3.org/2000/svg" d="m112 320h48v16h-48z" fill="#fff" data-original="#fff" class=""></path><path xmlns="http://www.w3.org/2000/svg" d="m488 208h-288a8.00039 8.00039 0 0 0 -8 8v56h16v-48h272v112h-136a8.00039 8.00039 0 0 0 -8 8v40a8.00039 8.00039 0 0 0 8 8h136v16h-88a8.00039 8.00039 0 0 0 -8 8v40a8.00039 8.00039 0 0 0 8 8h88v16h-128v16h136a8.00039 8.00039 0 0 0 8-8v-272a8.00039 8.00039 0 0 0 -8-8zm-56 144v24h-32v-24zm-80 0h32v24h-32zm96 24v-24h32v24zm-48 48h32v24h-32zm48 24v-24h32v24z" fill="#fff" data-original="#fff" class=""></path><path xmlns="http://www.w3.org/2000/svg" d="m224 240h16v16h-16z" fill="#fff" data-original="#fff" class=""></path><path xmlns="http://www.w3.org/2000/svg" d="m256 240h16v16h-16z" fill="#fff" data-original="#fff" class=""></path><path xmlns="http://www.w3.org/2000/svg" d="m288 240h16v16h-16z" fill="#fff" data-original="#fff" class=""></path><path xmlns="http://www.w3.org/2000/svg" d="m320 240h16v16h-16z" fill="#fff" data-original="#fff" class=""></path><path xmlns="http://www.w3.org/2000/svg" d="m352 240h16v16h-16z" fill="#fff" data-original="#fff" class=""></path><path xmlns="http://www.w3.org/2000/svg" d="m384 240h16v16h-16z" fill="#fff" data-original="#fff" class=""></path><path xmlns="http://www.w3.org/2000/svg" d="m416 240h16v16h-16z" fill="#fff" data-original="#fff" class=""></path><path xmlns="http://www.w3.org/2000/svg" d="m448 240h16v16h-16z" fill="#fff" data-original="#fff" class=""></path><path xmlns="http://www.w3.org/2000/svg" d="m288 272h16v16h-16z" fill="#fff" data-original="#fff" class=""></path><path xmlns="http://www.w3.org/2000/svg" d="m320 272h16v16h-16z" fill="#fff" data-original="#fff" class=""></path><path xmlns="http://www.w3.org/2000/svg" d="m352 272h16v16h-16z" fill="#fff" data-original="#fff" class=""></path><path xmlns="http://www.w3.org/2000/svg" d="m384 272h16v16h-16z" fill="#fff" data-original="#fff" class=""></path><path xmlns="http://www.w3.org/2000/svg" d="m416 272h16v16h-16z" fill="#fff" data-original="#fff" class=""></path><path xmlns="http://www.w3.org/2000/svg" d="m448 272h16v16h-16z" fill="#fff" data-original="#fff" class=""></path><path xmlns="http://www.w3.org/2000/svg" d="m320 304h16v16h-16z" fill="#fff" data-original="#fff" class=""></path><path xmlns="http://www.w3.org/2000/svg" d="m352 304h16v16h-16z" fill="#fff" data-original="#fff" class=""></path><path xmlns="http://www.w3.org/2000/svg" d="m384 304h16v16h-16z" fill="#fff" data-original="#fff" class=""></path><path xmlns="http://www.w3.org/2000/svg" d="m416 304h16v16h-16z" fill="#fff" data-original="#fff" class=""></path><path xmlns="http://www.w3.org/2000/svg" d="m448 304h16v16h-16z" fill="#fff" data-original="#fff" class=""></path><path xmlns="http://www.w3.org/2000/svg" d="m176.0459 23.13965-22.48633 208 15.9082 1.7207 13.06543-120.86035h50.9336l8.74121 80.86035 15.9082-1.7207-18.16211-168a8.00012 8.00012 0 0 0 -7.9541-7.13965h-48a8.00012 8.00012 0 0 0 -7.9541 7.13965zm8.21704 72.86035 2.59448-24h42.28516l2.59448 24zm40.55542-64 2.59448 24h-38.82568l2.59448-24z" fill="#fff" data-original="#fff" class=""></path><path xmlns="http://www.w3.org/2000/svg" d="m345.4668 112 8.74121 80.85938 15.9082-1.71876-18.16211-168a8.00017 8.00017 0 0 0 -7.9541-7.14062h-48a8.00017 8.00017 0 0 0 -7.9541 7.14062l-18.16211 168 15.9082 1.71876 8.74121-80.85938zm-49.20386-16 2.59448-24h42.28516l2.59448 24zm40.55542-64 2.59448 24h-38.82568l2.59448-24z" fill="#fff" data-original="#fff" class=""></path></g></svg>