<svg xmlns="http://www.w3.org/2000/svg" version="1.1" xmlns:xlink="http://www.w3.org/1999/xlink" xmlns:svgjs="http://svgjs.com/svgjs" width="512" height="512" x="0" y="0" viewBox="0 0 512 512" style="enable-background:new 0 0 512 512" xml:space="preserve" class=""><g><path xmlns="http://www.w3.org/2000/svg" d="m497.197 170.01c-9.493-26.624-23.284-51.374-40.991-73.563-2.583-3.237-7.302-3.769-10.54-1.185s-3.768 7.303-1.185 10.54c32.797 41.101 50.822 90.296 52.393 142.698h-99.449c-.711-44.994-7.806-88.435-20.663-126.511 20.32-10.891 39.172-24.538 55.854-40.452 3.047-2.907 3.046-7.948-.001-10.854-47.812-45.58-110.535-70.683-176.615-70.683-103.706 0-199.594 64.982-237.926 161.433-11.931 30.022-18.074 62.263-18.074 94.567 0 118.045 84.176 223.632 199.347 249.697.574 3.572 3.662 6.303 7.396 6.303h98.514c3.732 0 6.819-2.729 7.395-6.299 115.174-26.064 199.348-131.657 199.348-249.701 0-29.511-4.98-58.442-14.803-85.99zm-250.38 19.153c-10.415-3.679-17.484-14.077-17.484-25.049v-2.786c17.897 1.548 37.021.075 53.335-7.939v10.726c-.001 18.243-18.77 31.24-35.851 25.048zm-48.765-167.152c-4.445 1.091-11.958 10.868-15.388 14.599-5.891 6.408-11.246 13.301-16.141 20.497-10.702 15.734-19.219 32.915-26.125 50.623-16.064-8.795-31.073-19.394-44.777-31.619 29.545-26.373 64.639-44.785 102.431-54.1zm50.448-6.578v99.567h-9.543c-11.544 0-21.254 7.991-23.905 18.734-21.198-3.626-41.726-10.063-61.206-19.194 22.496-58.58 57.21-94.817 94.654-99.107zm31.706 122.188c-14.78 9.175-33.935 10.297-50.873 8.63.05-2.208.074-4.406 0-6.615 0-5.313 4.317-9.636 9.624-9.636h34.087c4.159 0 7.709 2.655 9.051 6.362-.623.431-1.252.851-1.889 1.259zm16.742-3.887c-2.65-10.743-12.36-18.734-23.905-18.734h-9.543v-99.567c37.444 4.29 72.158 40.528 94.654 99.107-19.477 9.129-40.005 15.566-61.206 19.194zm-2.388 72.048h10.697c6.46 0 12.532 2.514 17.096 7.078 4.564 4.563 7.078 10.635 7.078 17.095v95.554h-16.506v-62.509c0-4.143-3.358-7.5-7.5-7.5s-7.5 3.357-7.5 7.5v62.509h-34.415v-64.41zm34.87 146.442c0 4.597-3.735 8.337-8.325 8.337-4.603 0-8.348-3.74-8.348-8.337v-11.715h16.673zm-94.784-146.444h42.712l-21.35 38.031zm-17.204.002 31.068 55.311v64.416h-34.267v-62.509c0-4.143-3.358-7.5-7.5-7.5s-7.5 3.357-7.5 7.5v62.509h-16.673v-95.554c0-13.329 10.844-24.173 24.173-24.173zm-34.872 134.727h16.673v11.715c0 4.597-3.745 8.337-8.348 8.337-4.59 0-8.325-3.74-8.325-8.337zm16.673 41.01v89.438c-17.805-17.323-33.546-42.745-45.391-73.504 14.565-6.823 29.774-12.163 45.391-15.934zm-31.673-29.295c0 8.216 4.269 15.448 10.701 19.608-10.048 3.199-19.903 7.003-29.492 11.43-11.93-36.082-18.516-77.163-19.209-119.762h38.001v88.724zm-27.171 52.052c14.683 37.686 34.487 67.094 57.724 85.724-38.919-9.591-73.799-28.564-102.42-54.173 13.683-12.197 28.663-22.772 44.696-31.551zm73.844-63.767h34.267v156.491h-34.267zm49.267 0h34.247v65.241c0 4.143 3.358 7.5 7.5 7.5s7.5-3.357 7.5-7.5v-24.231c15.615 3.771 30.825 9.11 45.391 15.935-11.843 30.754-27.587 56.181-45.391 73.505v-30.592c0-4.143-3.358-7.5-7.5-7.5s-7.5 3.357-7.5 7.5v56.633h-34.247zm108.086 63.781c11.705 6.412 22.927 13.807 33.434 22.082 3.844 3.028 7.605 6.202 11.263 9.462-28.622 25.609-63.504 44.582-102.425 54.172 23.237-18.628 43.045-48.037 57.728-85.716zm-8.375-21.028c-9.589-4.427-19.444-8.231-29.492-11.43 6.432-4.159 10.701-11.392 10.701-19.608v-88.724h38.001c-.693 42.599-7.28 83.68-19.21 119.762zm-18.791-134.762v-18.545c0-10.467-4.074-20.306-11.471-27.701-7.397-7.397-17.235-11.472-27.703-11.472l-17.266-.002c6.037-7.231 9.677-16.53 9.677-26.666v-15.291c22.699-3.715 44.689-10.446 65.554-20.084 11.93 36.082 18.516 77.162 19.209 119.761zm71.926-172.39c-13.671 12.192-28.699 22.803-44.765 31.603-14.838-38.038-34.871-67.364-57.82-85.742 37.856 9.3 72.999 27.731 102.585 54.139zm-331.721 10.282c15.397 13.881 32.365 25.816 50.59 35.581-10.077 29.803-16.565 62.516-19.299 97.35-.324 4.13 2.761 7.74 6.89 8.063.2.017.398.023.595.023 3.875 0 7.16-2.983 7.469-6.913 2.577-32.834 8.591-63.656 17.896-91.759 20.869 9.639 42.859 16.37 65.556 20.085v15.291c0 9.964 3.53 19.334 9.633 26.666l-17.222.002c-21.6 0-39.173 17.573-39.173 39.173v18.546h-152.441c1.923-62.84 27.916-120.043 69.506-162.108zm-69.504 177.108h99.443c.711 44.997 7.807 88.441 20.666 126.519-18.162 9.73-35.076 21.615-50.431 35.433-41.744-42.291-67.739-99.66-69.678-161.952zm412.062 161.955c-4.172-3.754-8.479-7.398-12.882-10.866-11.769-9.269-24.375-17.517-37.548-24.578 12.857-38.077 19.952-81.517 20.663-126.511h99.443c-1.939 62.293-27.933 119.663-69.676 161.955z" fill="#fff" data-original="#fff" class=""></path></g></svg>